<svg width="53" height="52" viewBox="0 0 53 52" fill="none" xmlns="http://www.w3.org/2000/svg">
<circle cx="27" cy="24" r="20" fill="black"/>
<g filter="url(#filter0_d_2822_42634)">
<path d="M37.1209 20.1468H32.8273C31.9466 20.1468 31.176 20.9175 31.176 21.7982V26.0917C31.176 26.9725 31.9466 27.7431 32.8273 27.7431H37.1209C38.0016 27.7431 38.7723 26.9725 38.7723 26.0917V21.7982C38.7723 20.9175 38.0016 20.1468 37.1209 20.1468ZM36.9007 24.2202L35.6897 25.4312C35.5796 25.5413 35.5796 25.5413 35.4695 25.5413C35.3594 25.5413 35.2493 25.5413 35.2493 25.4312C35.1393 25.3211 35.1393 25.1009 35.2493 24.9908L35.9099 24.3303H33.2677C33.0475 24.3303 32.9374 24.2202 32.9374 24C32.9374 23.7798 33.0475 23.6697 33.2677 23.6697H35.7998L35.2493 23.0092C35.1393 22.8991 35.1393 22.6789 35.2493 22.5688C35.3594 22.4587 35.5796 22.4587 35.6897 22.5688L36.9007 23.7798C37.0108 23.8899 37.0108 24 36.9007 24.2202Z" fill="white"/>
<path d="M20.718 20.1468H16.5345C15.6538 20.1468 14.8832 20.9175 14.8832 21.7982V26.0917C14.8832 26.9725 15.6538 27.7431 16.5345 27.7431H20.8281C21.7088 27.7431 22.4795 26.9725 22.4795 26.0917V21.7982C22.3694 20.9175 21.7088 20.1468 20.718 20.1468ZM20.3877 24.2202H17.7456L18.4061 24.8807C18.5162 24.9908 18.5162 25.211 18.4061 25.3211C18.296 25.4312 18.296 25.4312 18.1859 25.4312C18.0758 25.4312 17.9657 25.4312 17.9657 25.3211L16.7547 24.1101C16.6446 24 16.6446 23.7798 16.7547 23.6697L17.9657 22.4587C18.0758 22.3486 18.296 22.3486 18.4061 22.4587C18.5162 22.5688 18.5162 22.789 18.4061 22.8991L17.7456 23.5596H20.3877C20.6079 23.5596 20.718 23.6697 20.718 23.8899C20.718 24.1101 20.4978 24.2202 20.3877 24.2202Z" fill="white"/>
<path d="M28.9754 28.4037H24.6819C23.8012 28.4037 23.0305 29.1743 23.0305 30.055V34.3486C23.0305 35.2293 23.8012 36 24.6819 36H28.9754C29.8562 36 30.6268 35.2293 30.6268 34.3486V30.055C30.6268 29.0642 29.8562 28.4037 28.9754 28.4037ZM28.3149 32.8073L27.1039 34.0183C26.9938 34.1284 26.7736 34.1284 26.6635 34.0183L25.4525 32.8073C25.3424 32.6972 25.3424 32.6972 25.3424 32.5871C25.3424 32.477 25.3424 32.367 25.4525 32.367C25.5626 32.2569 25.7828 32.2569 25.8929 32.367L26.5534 33.0275V30.3853C26.5534 30.1651 26.6635 30.055 26.8837 30.055C27.1039 30.055 27.214 30.1651 27.214 30.3853V32.9174L27.8745 32.2569C27.9846 32.1468 28.2048 32.1468 28.3149 32.2569C28.425 32.477 28.425 32.6972 28.3149 32.8073Z" fill="white"/>
<path d="M28.9754 12H24.6819C23.8012 12 23.0305 12.7706 23.0305 13.6514V17.9449C23.0305 18.8257 23.8012 19.5963 24.6819 19.5963H28.9754C29.8562 19.5963 30.6268 18.8257 30.6268 17.9449V13.6514C30.6268 12.7706 29.8562 12 28.9754 12ZM28.3149 15.5229C28.2048 15.633 27.9846 15.633 27.8745 15.5229L27.214 14.8624V17.3945C27.214 17.6147 27.1039 17.7247 26.8837 17.7247C26.6635 17.7247 26.5534 17.6147 26.5534 17.3945V14.8624L25.8929 15.5229C25.7828 15.633 25.5626 15.633 25.4525 15.5229C25.3424 15.4128 25.3424 15.1926 25.4525 15.0826L26.6635 13.8716C26.7736 13.7615 26.9938 13.7615 27.1039 13.8716L28.3149 15.0826C28.425 15.1926 28.425 15.1926 28.425 15.3027C28.425 15.4128 28.3149 15.5229 28.3149 15.5229Z" fill="white"/>
</g>
<defs>
<filter id="filter0_d_2822_42634" x="0.883179" y="0" width="51.8891" height="52" filterUnits="userSpaceOnUse" color-interpolation-filters="sRGB">
<feFlood flood-opacity="0" result="BackgroundImageFix"/>
<feColorMatrix in="SourceAlpha" type="matrix" values="0 0 0 0 0 0 0 0 0 0 0 0 0 0 0 0 0 0 127 0" result="hardAlpha"/>
<feOffset dy="2"/>
<feGaussianBlur stdDeviation="7"/>
<feComposite in2="hardAlpha" operator="out"/>
<feColorMatrix type="matrix" values="0 0 0 0 0 0 0 0 0 0 0 0 0 0 0 0 0 0 1 0"/>
<feBlend mode="normal" in2="BackgroundImageFix" result="effect1_dropShadow_2822_42634"/>
<feBlend mode="normal" in="SourceGraphic" in2="effect1_dropShadow_2822_42634" result="shape"/>
</filter>
</defs>
</svg>
