<svg width="50" height="50" viewBox="0 0 50 50" fill="none" xmlns="http://www.w3.org/2000/svg">
<path d="M12.0229 14C12.0229 11.2386 14.2615 9 17.0229 9H32.9771C35.7386 9 37.9771 11.2386 37.9771 14V31.7292C37.9771 33.6673 36.8571 35.4308 35.1028 36.2548L27.1257 40.0016C25.7792 40.6341 24.2209 40.6341 22.8744 40.0016L14.8973 36.2548C13.143 35.4309 12.0229 33.6673 12.0229 31.7292V14Z" fill="white"/>
<path d="M34.0649 20.9632H27.5801L25.024 14L22.5626 20.9632H16.0305L21.5686 24.9895L19.4859 32L25.0477 27.9737L30.5858 32L28.5504 25.0132L34.0649 20.9632Z" fill="#E136EA"/>
</svg>
