<svg width="50" height="50" viewBox="0 0 50 50" fill="none" xmlns="http://www.w3.org/2000/svg">
<path d="M32.9771 8.5H17.0229C13.9854 8.5 11.5229 10.9624 11.5229 14V31.7292C11.5229 33.8611 12.755 35.801 14.6847 36.7074L22.6618 40.4542C24.143 41.1499 25.8571 41.1499 27.3383 40.4542L35.3154 36.7074C37.2451 35.801 38.4771 33.8611 38.4771 31.7292V14C38.4771 10.9624 36.0147 8.5 32.9771 8.5Z" fill="#F5BCF8" stroke="#E136EA"/>
<path d="M34.065 20.9632H27.5802L25.0241 14L22.5628 20.9632H16.0306L21.5687 24.9895L19.486 32L25.0478 27.9737L30.5859 32L28.5506 25.0132L34.065 20.9632Z" fill="#E136EA"/>
</svg>
