<svg viewBox="0 0 18 19" fill="none" xmlns="http://www.w3.org/2000/svg">
<path d="M17.5805 7.63426C17.0905 8.62463 16.4467 9.53137 15.6731 10.3209C14.8307 10.9405 13.8935 11.4198 12.8978 11.7404C13.5608 12.134 14.3525 12.2504 15.1009 12.0643C15.1009 12.0643 15.5873 12.0643 14.7385 12.7598C13.9254 13.5839 12.9516 14.2324 11.8773 14.6652C11.6697 14.7139 11.4544 14.7198 11.2444 14.6828C11.0344 14.6458 10.8341 14.5665 10.6557 14.4498C10.4773 14.3331 10.3245 14.1813 10.2066 14.0038C10.0887 13.8263 10.0082 13.6267 9.96989 13.4172C9.84591 12.9218 9.78869 8.7775 9.75054 6.07182L11.7343 5.49068C11.7709 5.53943 11.8217 5.57568 11.8798 5.59444C11.9378 5.61321 12.0003 5.61357 12.0585 5.59547C12.1178 5.5767 12.1706 5.54178 12.211 5.49465C12.2514 5.44752 12.2779 5.39006 12.2874 5.32872L12.8024 5.17628C12.8414 5.22479 12.894 5.26064 12.9534 5.27929C13.0128 5.29795 13.0764 5.29857 13.1362 5.28108C13.1955 5.26398 13.2482 5.22933 13.2873 5.18171C13.3265 5.13408 13.3503 5.07573 13.3556 5.01432L13.7943 4.88095C13.8294 4.87107 13.8623 4.85434 13.8909 4.83172C13.9196 4.8091 13.9435 4.78104 13.9612 4.74915C13.9789 4.71727 13.9902 4.68219 13.9942 4.64595C13.9983 4.6097 13.9952 4.573 13.985 4.53797L13.7657 3.75676C13.7558 3.72164 13.739 3.68883 13.7164 3.66022C13.6938 3.6316 13.6657 3.60775 13.6337 3.59004C13.6018 3.57232 13.5667 3.5611 13.5304 3.55701C13.4941 3.55292 13.4574 3.55605 13.4223 3.56622L13.0122 3.75676C12.9732 3.70825 12.9207 3.67241 12.8613 3.65375C12.8018 3.63509 12.7382 3.63447 12.6784 3.65196C12.6198 3.6702 12.5678 3.70517 12.5288 3.75257C12.4899 3.79997 12.4656 3.85772 12.4591 3.91872L11.9345 4.07115C11.8979 4.02239 11.8471 3.98614 11.7891 3.96738C11.731 3.94862 11.6685 3.94826 11.6103 3.96635C11.551 3.98346 11.4983 4.01811 11.4592 4.06573C11.42 4.11335 11.3962 4.17171 11.3909 4.23311L9.77915 4.69993C9.77915 4.32838 9.77915 4.04257 9.77915 3.89014C10.2133 3.71343 10.5724 3.39153 10.7952 2.97951C11.0179 2.56748 11.0905 2.09094 11.0003 1.6314C10.9102 1.17187 10.663 0.757893 10.3011 0.460303C9.93915 0.162713 9.48495 0 9.01618 0C8.54741 0 8.0932 0.162713 7.73126 0.460303C7.36933 0.757893 7.12215 1.17187 7.03202 1.6314C6.94189 2.09094 7.01441 2.56748 7.23717 2.97951C7.45993 3.39153 7.81909 3.71343 8.2532 3.89014C8.2532 4.04257 8.2532 4.32838 8.2532 4.69993L6.64143 4.23311C6.63614 4.17171 6.61235 4.11335 6.57319 4.06573C6.53403 4.01811 6.48134 3.98346 6.42207 3.96635C6.3638 3.94826 6.30136 3.94862 6.2433 3.96738C6.18525 3.98614 6.13442 4.02239 6.09781 4.07115L5.57327 3.91872C5.56674 3.85772 5.54249 3.79997 5.50352 3.75257C5.46454 3.70517 5.41254 3.6702 5.35391 3.65196C5.29414 3.63447 5.23051 3.63509 5.17109 3.65375C5.11167 3.67241 5.05912 3.70825 5.02011 3.75676L4.5814 3.62338C4.51661 3.59686 4.44415 3.59588 4.37866 3.62063C4.31317 3.64538 4.25952 3.69403 4.22853 3.75676L3.99964 4.51892C3.98946 4.55395 3.98633 4.59065 3.99042 4.62689C3.99451 4.66314 4.00575 4.69822 4.02348 4.7301C4.04121 4.76199 4.06509 4.79005 4.09374 4.81267C4.12238 4.83529 4.15523 4.85202 4.19038 4.86189L4.62909 4.99527C4.63437 5.05667 4.65817 5.11503 4.69733 5.16265C4.73649 5.21027 4.78917 5.24492 4.84844 5.26203C4.90822 5.27952 4.97184 5.27889 5.03126 5.26024C5.09068 5.24158 5.14323 5.20573 5.18224 5.15723L5.69725 5.30966C5.70676 5.371 5.73323 5.42847 5.77367 5.4756C5.81411 5.52273 5.86691 5.55764 5.92614 5.57642C5.98441 5.59451 6.04685 5.59415 6.10491 5.57539C6.16296 5.55663 6.21379 5.52038 6.2504 5.47162L8.23413 6.05277C8.23413 8.75845 8.13876 12.9027 8.01478 13.3981C7.97647 13.6077 7.89593 13.8073 7.77803 13.9848C7.66014 14.1623 7.50736 14.314 7.32897 14.4307C7.15059 14.5474 6.95031 14.6267 6.74031 14.6638C6.5303 14.7008 6.31496 14.6948 6.10735 14.6461C5.0331 14.2134 4.05927 13.5649 3.2462 12.7407C2.39739 12.0262 2.88379 12.0453 2.88379 12.0453C3.63219 12.2314 4.42388 12.115 5.08687 11.7214C4.09573 11.4057 3.16187 10.9328 2.3211 10.3209C1.5475 9.53137 0.903741 8.62463 0.413667 7.63426C-0.0445275 8.91535 -0.123986 10.3011 0.184775 11.6261C0.709319 13.7887 1.47229 14.3127 1.47229 14.3127C1.48893 13.7954 1.5399 13.2798 1.62488 12.7693C2.41721 13.8655 3.36126 14.8439 4.42881 15.6751C5.42929 16.4617 6.49858 17.1568 7.62375 17.752C8.13703 18.1026 8.59921 18.5226 8.9971 19C9.39792 18.522 9.86334 18.1019 10.38 17.752C11.5052 17.1568 12.5745 16.4617 13.5749 15.6751C14.6425 14.8439 15.5865 13.8655 16.3789 12.7693C16.4638 13.2798 16.5148 13.7954 16.5315 14.3127C16.5315 14.3127 17.2944 13.7887 17.819 11.6261C18.1247 10.3002 18.0419 8.91443 17.5805 7.63426ZM7.8145 1.96568C7.8145 1.81054 7.84508 1.65692 7.90452 1.51359C7.96395 1.37026 8.05106 1.24003 8.16087 1.13033C8.27069 1.02064 8.40106 0.933618 8.54454 0.87425C8.68802 0.814881 8.8418 0.784325 8.9971 0.784325C9.1524 0.784325 9.30619 0.814881 9.44967 0.87425C9.59315 0.933618 9.72352 1.02064 9.83333 1.13033C9.94315 1.24003 10.0303 1.37026 10.0897 1.51359C10.1491 1.65692 10.1797 1.81054 10.1797 1.96568C10.1876 2.14692 10.1528 2.32748 10.0783 2.49291C10.0038 2.65834 9.89154 2.80405 9.75054 2.91838C9.75054 2.36581 9.61702 1.96568 9.01618 1.96568C8.41534 1.96568 8.30089 2.31818 8.28182 2.91838C8.13382 2.80802 8.01425 2.66406 7.93299 2.4984C7.85173 2.33273 7.81111 2.15013 7.8145 1.96568Z" fill="white"/>
</svg>
