<svg width="50" height="50" viewBox="0 0 50 50" fill="none" xmlns="http://www.w3.org/2000/svg">
<path d="M14.6524 38.5309L14.6445 38.5241C14.2631 38.1959 13.9001 37.8762 13.553 37.5623C13.452 37.5681 13.3508 37.5707 13.2494 37.5701M14.6524 38.5309L12.8082 36.8744C12.9487 37.007 13.0918 37.1404 13.2378 37.2747L13.2351 37.57C13.2399 37.5701 13.2446 37.5701 13.2494 37.5701M14.6524 38.5309L14.6603 38.5376C16.1004 39.751 17.6575 40.8182 19.3087 41.7234C19.4391 41.7964 19.5509 41.858 19.6495 41.9124C19.8783 42.0384 20.0359 42.1253 20.189 42.2237C20.5873 42.4973 20.9478 42.8223 21.261 43.1903C21.7291 43.7556 22.3161 44.2109 22.9803 44.5237C23.6459 44.8372 24.3725 44.9997 25.1082 44.9998C25.8398 45.0058 26.5638 44.8509 27.2291 44.5462C27.8932 44.242 28.4825 43.7958 28.9555 43.2393C29.2809 42.8662 29.6495 42.5332 30.0536 42.2473C30.2036 42.1515 30.3593 42.0657 30.583 41.9424C30.6786 41.8897 30.7866 41.8302 30.9119 41.7602C32.5853 40.8709 34.1656 39.8165 35.6291 38.6126L35.6462 38.5985L35.663 38.5841C36.0445 38.2558 36.4074 37.9362 36.7545 37.6222C36.859 37.6282 36.9638 37.6308 37.0688 37.63C38.064 37.6241 39.0348 37.3211 39.8566 36.7599C40.9756 36.003 42.8562 34.0751 43.9419 29.584L43.9439 29.5762L43.9457 29.5683C44.6638 26.489 44.4617 23.2666 43.3644 20.3012L43.3524 20.2689L43.3393 20.2369C42.9764 19.3514 42.3668 18.5887 41.583 18.0396C40.7992 17.4905 39.8742 17.1781 38.918 17.1395L38.8777 17.1379H38.8373H38.7274C38.7067 17.133 38.6218 17.1056 38.4868 16.9763C38.2948 16.7924 38.0495 16.4377 37.8837 15.86L37.8814 15.8517L37.8789 15.8435L37.5194 14.6301L37.5177 14.6245C37.1796 13.4958 36.4846 12.5072 35.5369 11.8071C34.7821 11.2495 33.8994 10.8989 32.9761 10.7836C32.5599 9.42175 31.7916 8.18142 30.7346 7.19558C29.2217 5.78463 27.23 5 25.1613 5C23.0926 5 21.1008 5.78463 19.588 7.19558C18.5299 8.1824 17.7611 9.42422 17.3452 10.7877C16.4251 10.9079 15.5468 11.262 14.7966 11.8213C13.8585 12.5206 13.1706 13.5035 12.8348 14.6244L12.8348 14.6244L12.8331 14.6302L12.4736 15.8435L12.4711 15.8517L12.4688 15.86C12.303 16.4377 12.0577 16.7924 11.8657 16.9763C11.7307 17.1056 11.6458 17.133 11.6251 17.1379H11.4852H11.4295L11.374 17.141C10.4308 17.1935 9.52178 17.5124 8.75248 18.0606C7.98318 18.6089 7.38508 19.364 7.02757 20.2384L7.01481 20.2696L7.00311 20.3012C5.90581 23.2666 5.70367 26.489 6.42178 29.5683L6.42362 29.5762L6.42552 29.584C7.51318 34.083 9.39847 36.0097 10.5167 36.7639L10.5408 36.7802L10.5654 36.7957C11.3683 37.3039 12.2994 37.5725 13.2494 37.5701M14.6524 38.5309L13.2618 37.2968L13.2632 37.5701C13.2586 37.5701 13.254 37.5701 13.2494 37.5701M38.7323 17.1388C38.7323 17.1388 38.7315 17.1387 38.7299 17.1384L38.7323 17.1388ZM11.6202 17.1388C11.6202 17.1388 11.621 17.1386 11.6226 17.1384L11.6202 17.1388Z" fill="white" stroke="#BB0000" stroke-width="4"/>
<path d="M13.5 37.3787L36.8787 14" stroke="#BB0000" stroke-opacity="0.5" stroke-width="2"/>
<path d="M30.5003 8.67157L8 31.1718" stroke="#BB0000" stroke-opacity="0.5" stroke-width="2"/>
<path d="M42.5 19.5L20 42" stroke="#BB0000" stroke-opacity="0.5" stroke-width="2"/>
<path d="M37.8807 22.2505C37.1592 23.71 36.2115 25.0462 35.0727 26.2097C33.8326 27.1228 32.4529 27.8292 30.9871 28.3016C31.9631 28.8817 33.1286 29.0532 34.2303 28.779C34.2303 28.779 34.9463 28.779 33.6968 29.8039C32.4999 31.0184 31.0663 31.9741 29.4848 32.6119C29.1792 32.6836 28.8622 32.6924 28.553 32.6378C28.2439 32.5833 27.9491 32.4664 27.6865 32.2944C27.4238 32.1224 27.1989 31.8988 27.0254 31.6372C26.8518 31.3756 26.7333 31.0815 26.6769 30.7727C26.4944 30.0426 26.4101 23.9353 26.354 19.948L29.2742 19.0915C29.3281 19.1634 29.403 19.2168 29.4884 19.2444C29.5739 19.2721 29.6658 19.2726 29.7516 19.246C29.8388 19.2183 29.9165 19.1668 29.976 19.0974C30.0356 19.0279 30.0745 18.9432 30.0886 18.8528L30.8467 18.6282C30.9041 18.6997 30.9815 18.7525 31.069 18.78C31.1564 18.8075 31.2501 18.8084 31.3381 18.7826C31.4253 18.7574 31.5029 18.7064 31.5606 18.6362C31.6182 18.566 31.6532 18.48 31.661 18.3895L32.3068 18.193C32.3586 18.1784 32.4069 18.1538 32.4491 18.1204C32.4913 18.0871 32.5264 18.0457 32.5525 17.9988C32.5786 17.9518 32.5952 17.9001 32.6012 17.8467C32.6072 17.7932 32.6026 17.7392 32.5876 17.6875L32.2647 16.5363C32.2502 16.4845 32.2255 16.4362 32.1922 16.394C32.1588 16.3518 32.1175 16.3167 32.0705 16.2906C32.0235 16.2645 31.9718 16.2479 31.9184 16.2419C31.865 16.2359 31.8109 16.2405 31.7593 16.2555L31.1556 16.5363C31.0981 16.4648 31.0208 16.412 30.9333 16.3845C30.8458 16.357 30.7522 16.3561 30.6642 16.3818C30.5779 16.4087 30.5013 16.4603 30.4439 16.5301C30.3866 16.6 30.3509 16.6851 30.3413 16.775L29.5691 16.9996C29.5152 16.9277 29.4404 16.8743 29.3549 16.8467C29.2694 16.819 29.1775 16.8185 29.0917 16.8452C29.0045 16.8704 28.9269 16.9214 28.8693 16.9916C28.8116 17.0618 28.7766 17.1478 28.7688 17.2383L26.3961 17.9262C26.3961 17.3787 26.3961 16.9575 26.3961 16.7328C27.0351 16.4724 27.5639 15.998 27.8918 15.3909C28.2197 14.7837 28.3265 14.0814 28.1938 13.4042C28.0611 12.727 27.6972 12.1169 27.1644 11.6783C26.6316 11.2398 25.963 11 25.2729 11C24.5828 11 23.9142 11.2398 23.3813 11.6783C22.8485 12.1169 22.4847 12.727 22.352 13.4042C22.2193 14.0814 22.3261 14.7837 22.654 15.3909C22.9819 15.998 23.5106 16.4724 24.1497 16.7328V16.7328C24.1497 16.9575 24.1497 17.3787 24.1497 17.9262L21.777 17.2383C21.7692 17.1478 21.7342 17.0618 21.6765 16.9916C21.6189 16.9214 21.5413 16.8704 21.4541 16.8452C21.3683 16.8185 21.2764 16.819 21.1909 16.8467C21.1054 16.8743 21.0306 16.9277 20.9767 16.9996L20.2045 16.775C20.1949 16.6851 20.1592 16.6 20.1018 16.5301C20.0445 16.4603 19.9679 16.4087 19.8816 16.3818C19.7936 16.3561 19.6999 16.357 19.6125 16.3845C19.525 16.412 19.4476 16.4648 19.3902 16.5363L18.7444 16.3397C18.649 16.3006 18.5423 16.2992 18.4459 16.3357C18.3495 16.3721 18.2705 16.4438 18.2249 16.5363L17.8879 17.6595C17.873 17.7111 17.8683 17.7652 17.8744 17.8186C17.8804 17.872 17.8969 17.9237 17.923 17.9707C17.9492 18.0177 17.9843 18.059 18.0265 18.0924C18.0686 18.1257 18.117 18.1503 18.1687 18.1649L18.8146 18.3615C18.8224 18.4519 18.8574 18.5379 18.915 18.6081C18.9727 18.6783 19.0502 18.7294 19.1375 18.7546C19.2255 18.7803 19.3191 18.7794 19.4066 18.7519C19.4941 18.7244 19.5714 18.6716 19.6289 18.6001L20.387 18.8248C20.401 18.9152 20.44 18.9999 20.4995 19.0693C20.5591 19.1388 20.6368 19.1902 20.724 19.2179C20.8098 19.2445 20.9017 19.244 20.9872 19.2164C21.0726 19.1887 21.1474 19.1353 21.2013 19.0634L24.1216 19.9199C24.1216 23.9072 23.9812 30.0145 23.7987 30.7446C23.7423 31.0534 23.6237 31.3475 23.4502 31.6091C23.2766 31.8707 23.0517 32.0943 22.7891 32.2663C22.5265 32.4383 22.2317 32.5552 21.9225 32.6098C21.6134 32.6643 21.2964 32.6555 20.9907 32.5838C19.4093 31.946 17.9757 30.9903 16.7788 29.7758C15.5293 28.7228 16.2453 28.7509 16.2453 28.7509C17.347 29.0252 18.5125 28.8536 19.4885 28.2736C18.0294 27.8084 16.6547 27.1116 15.4169 26.2097C14.2781 25.0462 13.3304 23.71 12.609 22.2505C11.9345 24.1384 11.8175 26.1806 12.272 28.1332C13.0442 31.3202 14.1674 32.0924 14.1674 32.0924C14.1919 31.3301 14.2669 30.5703 14.392 29.818C15.5584 31.4334 16.9482 32.8752 18.5197 34.1001C19.9926 35.2593 21.5667 36.2837 23.2231 37.1608C23.9787 37.6776 24.6591 38.2965 25.2448 39V39C25.8349 38.2955 26.52 37.6765 27.2806 37.1608C28.937 36.2837 30.5111 35.2593 31.9839 34.1001C33.5555 32.8752 34.9452 31.4334 36.1116 29.818C36.2367 30.5703 36.3118 31.3301 36.3363 32.0924C36.3363 32.0924 37.4595 31.3202 38.2317 28.1332C38.6817 26.1792 38.5598 24.137 37.8807 22.2505V22.2505ZM23.5039 13.8968C23.5039 13.6682 23.5489 13.4418 23.6364 13.2306C23.7239 13.0193 23.8521 12.8274 24.0138 12.6658C24.1754 12.5041 24.3674 12.3759 24.5786 12.2884C24.7898 12.2009 25.0162 12.1558 25.2448 12.1558C25.4734 12.1558 25.6998 12.2009 25.911 12.2884C26.1223 12.3759 26.3142 12.5041 26.4758 12.6658C26.6375 12.8274 26.7657 13.0193 26.8532 13.2306C26.9407 13.4418 26.9857 13.6682 26.9857 13.8968C26.9973 14.1639 26.9462 14.43 26.8365 14.6738C26.7268 14.9176 26.5615 15.1323 26.354 15.3008C26.354 14.4865 26.1574 13.8968 25.2729 13.8968C24.3884 13.8968 24.2199 14.4163 24.1918 15.3008C23.974 15.1381 23.7979 14.926 23.6783 14.6818C23.5587 14.4377 23.4989 14.1686 23.5039 13.8968V13.8968Z" fill="#E136EA"/>
</svg>
