<svg width="50" height="50" viewBox="0 0 50 50" fill="none" xmlns="http://www.w3.org/2000/svg">
<path d="M25.1163 42.9998C24.6725 43.0009 24.234 42.9034 23.8324 42.7143C23.4309 42.5252 23.0764 42.2492 22.7945 41.9063C22.3583 41.3915 21.8544 40.9381 21.2966 40.5582C20.997 40.3635 20.6525 40.1837 20.278 39.974C18.7401 39.1316 17.29 38.138 15.949 37.0081C15.3049 36.4539 14.7207 35.9296 14.1815 35.4203C13.8826 35.5223 13.5686 35.5729 13.2528 35.5701C12.6802 35.5731 12.1188 35.412 11.635 35.1058C10.9909 34.6714 9.35815 33.2034 8.36952 29.1141C7.74039 26.4163 7.91748 23.5932 8.87881 20.9953C9.0932 20.4709 9.45186 20.0181 9.91319 19.6894C10.3745 19.3606 10.9196 19.1694 11.4852 19.1379H11.635C12.7584 19.1379 13.8969 18.1343 14.3912 16.4116L14.7507 15.1983C14.9631 14.4891 15.3984 13.8672 15.9919 13.4248C16.5855 12.9823 17.3058 12.7428 18.0461 12.7417C18.2754 12.722 18.5059 12.722 18.7352 12.7417H19.0048C19.1136 11.1831 19.8095 9.72382 20.9521 8.6582C22.0947 7.59259 23.5989 7 25.1613 7C26.7237 7 28.2279 7.59259 29.3705 8.6582C30.5131 9.72382 31.209 11.1831 31.3177 12.7417H31.5874C31.8166 12.722 32.0472 12.722 32.2764 12.7417C33.0219 12.7363 33.749 12.9728 34.3486 13.4158C34.9482 13.8587 35.3879 14.4842 35.6018 15.1983L35.9613 16.4116C36.4556 18.1343 37.5941 19.1379 38.7175 19.1379H38.8373C39.4107 19.161 39.9655 19.3484 40.4355 19.6776C40.9055 20.0069 41.271 20.4643 41.4887 20.9953C42.45 23.5932 42.6271 26.4163 41.998 29.1141C41.0093 33.2034 39.3766 34.6714 38.7325 35.1058C38.2382 35.4443 37.6539 35.6269 37.0548 35.63C36.739 35.6328 36.425 35.5822 36.1261 35.4802C35.5868 35.9895 35.0026 36.5138 34.3585 37.068C32.9926 38.1917 31.5172 39.1753 29.9546 40.004C29.5801 40.2137 29.2356 40.3934 28.936 40.5882C28.3834 40.9746 27.8804 41.4273 27.4381 41.9363C27.1534 42.2737 26.7976 42.544 26.3962 42.7278C25.9948 42.9117 25.5578 43.0046 25.1163 42.9998Z" fill="white"/>
<path d="M37.8807 22.2505C37.1592 23.71 36.2115 25.0462 35.0727 26.2097C33.8326 27.1228 32.4529 27.8292 30.9871 28.3016C31.9631 28.8817 33.1286 29.0532 34.2303 28.779C34.2303 28.779 34.9463 28.779 33.6968 29.8039C32.4999 31.0184 31.0663 31.9741 29.4848 32.6119C29.1792 32.6836 28.8622 32.6924 28.553 32.6378C28.2439 32.5833 27.9491 32.4664 27.6865 32.2944C27.4238 32.1224 27.1989 31.8988 27.0254 31.6372C26.8518 31.3756 26.7333 31.0815 26.6769 30.7727C26.4944 30.0426 26.4101 23.9353 26.354 19.948L29.2742 19.0915C29.3281 19.1634 29.403 19.2168 29.4884 19.2444C29.5739 19.2721 29.6658 19.2726 29.7516 19.246C29.8388 19.2183 29.9165 19.1668 29.976 19.0974C30.0356 19.0279 30.0745 18.9432 30.0886 18.8528L30.8467 18.6282C30.9041 18.6997 30.9815 18.7525 31.069 18.78C31.1564 18.8075 31.2501 18.8084 31.3381 18.7826C31.4253 18.7574 31.5029 18.7064 31.5606 18.6362C31.6182 18.566 31.6532 18.48 31.661 18.3895L32.3068 18.193C32.3586 18.1784 32.4069 18.1538 32.4491 18.1204C32.4913 18.0871 32.5264 18.0457 32.5525 17.9988C32.5786 17.9518 32.5952 17.9001 32.6012 17.8467C32.6072 17.7932 32.6026 17.7392 32.5876 17.6875L32.2647 16.5363C32.2502 16.4845 32.2255 16.4362 32.1922 16.394C32.1588 16.3518 32.1175 16.3167 32.0705 16.2906C32.0235 16.2645 31.9718 16.2479 31.9184 16.2419C31.865 16.2359 31.8109 16.2405 31.7593 16.2555L31.1556 16.5363C31.0981 16.4648 31.0208 16.412 30.9333 16.3845C30.8458 16.357 30.7522 16.3561 30.6642 16.3818C30.5779 16.4087 30.5013 16.4603 30.4439 16.5301C30.3866 16.6 30.3509 16.6851 30.3413 16.775L29.5691 16.9996C29.5152 16.9277 29.4404 16.8743 29.3549 16.8467C29.2694 16.819 29.1775 16.8185 29.0917 16.8452C29.0045 16.8704 28.9269 16.9214 28.8693 16.9916C28.8116 17.0618 28.7766 17.1478 28.7688 17.2383L26.3961 17.9262C26.3961 17.3787 26.3961 16.9575 26.3961 16.7328C27.0351 16.4724 27.5639 15.998 27.8918 15.3909C28.2197 14.7837 28.3265 14.0814 28.1938 13.4042C28.0611 12.727 27.6972 12.1169 27.1644 11.6783C26.6316 11.2398 25.963 11 25.2729 11C24.5828 11 23.9142 11.2398 23.3813 11.6783C22.8485 12.1169 22.4847 12.727 22.352 13.4042C22.2193 14.0814 22.3261 14.7837 22.654 15.3909C22.9819 15.998 23.5106 16.4724 24.1497 16.7328V16.7328C24.1497 16.9575 24.1497 17.3787 24.1497 17.9262L21.777 17.2383C21.7692 17.1478 21.7342 17.0618 21.6765 16.9916C21.6189 16.9214 21.5413 16.8704 21.4541 16.8452C21.3683 16.8185 21.2764 16.819 21.1909 16.8467C21.1054 16.8743 21.0306 16.9277 20.9767 16.9996L20.2045 16.775C20.1949 16.6851 20.1592 16.6 20.1018 16.5301C20.0445 16.4603 19.9679 16.4087 19.8816 16.3818C19.7936 16.3561 19.6999 16.357 19.6125 16.3845C19.525 16.412 19.4476 16.4648 19.3902 16.5363L18.7444 16.3397C18.649 16.3006 18.5423 16.2992 18.4459 16.3357C18.3495 16.3721 18.2705 16.4438 18.2249 16.5363L17.8879 17.6595C17.873 17.7111 17.8683 17.7652 17.8744 17.8186C17.8804 17.872 17.8969 17.9237 17.923 17.9707C17.9492 18.0177 17.9843 18.059 18.0265 18.0924C18.0686 18.1257 18.117 18.1503 18.1687 18.1649L18.8146 18.3615C18.8224 18.4519 18.8574 18.5379 18.915 18.6081C18.9727 18.6783 19.0502 18.7294 19.1375 18.7546C19.2255 18.7803 19.3191 18.7794 19.4066 18.7519C19.4941 18.7244 19.5714 18.6716 19.6289 18.6001L20.387 18.8248C20.401 18.9152 20.44 18.9999 20.4995 19.0693C20.5591 19.1388 20.6368 19.1902 20.724 19.2179C20.8098 19.2445 20.9017 19.244 20.9872 19.2164C21.0726 19.1887 21.1474 19.1353 21.2013 19.0634L24.1216 19.9199C24.1216 23.9072 23.9812 30.0145 23.7987 30.7446C23.7423 31.0534 23.6237 31.3475 23.4502 31.6091C23.2766 31.8707 23.0517 32.0943 22.7891 32.2663C22.5265 32.4383 22.2317 32.5552 21.9225 32.6098C21.6134 32.6643 21.2964 32.6555 20.9907 32.5838C19.4093 31.946 17.9757 30.9903 16.7788 29.7758C15.5293 28.7228 16.2453 28.7509 16.2453 28.7509C17.347 29.0252 18.5125 28.8536 19.4885 28.2736C18.0294 27.8084 16.6547 27.1116 15.4169 26.2097C14.2781 25.0462 13.3304 23.71 12.609 22.2505C11.9345 24.1384 11.8175 26.1806 12.272 28.1332C13.0442 31.3202 14.1674 32.0924 14.1674 32.0924C14.1919 31.3301 14.2669 30.5703 14.392 29.818C15.5584 31.4334 16.9482 32.8752 18.5197 34.1001C19.9926 35.2593 21.5667 36.2837 23.2231 37.1608C23.9787 37.6776 24.6591 38.2965 25.2448 39V39C25.8349 38.2955 26.52 37.6765 27.2806 37.1608C28.937 36.2837 30.5111 35.2593 31.9839 34.1001C33.5555 32.8752 34.9452 31.4334 36.1116 29.818C36.2367 30.5703 36.3118 31.3301 36.3363 32.0924C36.3363 32.0924 37.4595 31.3202 38.2317 28.1332C38.6817 26.1792 38.5598 24.137 37.8807 22.2505V22.2505ZM23.5039 13.8968C23.5039 13.6682 23.5489 13.4418 23.6364 13.2306C23.7239 13.0193 23.8521 12.8274 24.0138 12.6658C24.1754 12.5041 24.3674 12.3759 24.5786 12.2884C24.7898 12.2009 25.0162 12.1558 25.2448 12.1558C25.4734 12.1558 25.6998 12.2009 25.911 12.2884C26.1223 12.3759 26.3142 12.5041 26.4758 12.6658C26.6375 12.8274 26.7657 13.0193 26.8532 13.2306C26.9407 13.4418 26.9857 13.6682 26.9857 13.8968C26.9973 14.1639 26.9462 14.43 26.8365 14.6738C26.7268 14.9176 26.5615 15.1323 26.354 15.3008C26.354 14.4865 26.1574 13.8968 25.2729 13.8968C24.3884 13.8968 24.2199 14.4163 24.1918 15.3008C23.974 15.1381 23.7979 14.926 23.6783 14.6818C23.5587 14.4377 23.4989 14.1686 23.5039 13.8968V13.8968Z" fill="#2D5EE8"/>
</svg>
