<?xml version="1.0" encoding="UTF-8" standalone="no"?>
<svg
   xmlns:dc="http://purl.org/dc/elements/1.1/"
   xmlns:cc="http://creativecommons.org/ns#"
   xmlns:rdf="http://www.w3.org/1999/02/22-rdf-syntax-ns#"
   xmlns:svg="http://www.w3.org/2000/svg"
   xmlns="http://www.w3.org/2000/svg"
   xmlns:sodipodi="http://sodipodi.sourceforge.net/DTD/sodipodi-0.dtd"
   xmlns:inkscape="http://www.inkscape.org/namespaces/inkscape"
   width="12mm"
   height="12mm"
   viewBox="0 0 12 12"
   version="1.1"
   id="svg8"
   sodipodi:docname="calendar.svg"
   inkscape:version="1.0 (4035a4fb49, 2020-05-01)">
  <defs
     id="defs2" />
  <sodipodi:namedview
     id="base"
     pagecolor="#ffffff"
     bordercolor="#666666"
     borderopacity="1.0"
     inkscape:pageopacity="0.0"
     inkscape:pageshadow="2"
     inkscape:zoom="7.9195959"
     inkscape:cx="16.784207"
     inkscape:cy="29.962489"
     inkscape:document-units="mm"
     inkscape:current-layer="layer1"
     inkscape:document-rotation="0"
     showgrid="false"
     fit-margin-top="0"
     fit-margin-left="0"
     fit-margin-right="0"
     fit-margin-bottom="0"
     inkscape:window-width="1080"
     inkscape:window-height="1080"
     inkscape:window-x="1184"
     inkscape:window-y="464"
     inkscape:window-maximized="0" />
  <metadata
     id="metadata5">
    <rdf:RDF>
      <cc:Work
         rdf:about="">
        <dc:format>image/svg+xml</dc:format>
        <dc:type
           rdf:resource="http://purl.org/dc/dcmitype/StillImage" />
        <dc:title />
      </cc:Work>
    </rdf:RDF>
  </metadata>
  <g
     inkscape:label="Layer 1"
     inkscape:groupmode="layer"
     id="layer1"
     transform="translate(-425.29611,-3.4222728)">
    <path
       style="stroke-width:0.475165;font-variation-settings:normal;opacity:1;vector-effect:none;fill:#0b6a0b;fill-opacity:1;stroke-linecap:butt;stroke-linejoin:miter;stroke-miterlimit:4;stroke-dasharray:none;stroke-dashoffset:0;stroke-opacity:1;stop-color:#000000;stop-opacity:1"
       d="m 430.75769,10.539802 v 0.51857 c 0,0.155573 -0.10372,0.259287 -0.25929,0.259287 h -0.51857 c -0.15557,0 -0.2593,-0.103712 -0.2593,-0.259287 v -0.51857 c 0,-0.155573 0.10371,-0.259288 0.2593,-0.259288 h 0.51857 c 0.15557,0 0.25929,0.103713 0.25929,0.259288 z m -0.25929,1.815004 h -0.51857 c -0.15557,0 -0.2593,0.103712 -0.2593,0.259286 v 0.518573 c 0,0.155569 0.10371,0.259289 0.2593,0.259289 h 0.51857 c 0.15557,0 0.25929,-0.103717 0.25929,-0.259289 v -0.518573 c 0,-0.155572 -0.10372,-0.259286 -0.25929,-0.259286 z m 0,-4.1485855 h -0.51857 c -0.15557,0 -0.2593,0.1037151 -0.2593,0.2592861 v 0.5185749 c 0,0.155571 0.10371,0.2592839 0.2593,0.2592839 h 0.51857 c 0.15557,0 0.25929,-0.1037129 0.25929,-0.2592839 V 8.4655066 c 0,-0.155571 -0.10372,-0.2592861 -0.25929,-0.2592861 z m 2.07428,4.1485855 h -0.51857 c -0.15557,0 -0.25928,0.103712 -0.25928,0.259286 v 0.518573 c 0,0.155569 0.10371,0.259289 0.25928,0.259289 h 0.51857 c 0.15557,0 0.25929,-0.103717 0.25929,-0.259289 v -0.518573 c 0,-0.155572 -0.10372,-0.259286 -0.25929,-0.259286 z m -4.14858,-2.074292 h -0.51857 c -0.15557,0 -0.25928,0.103713 -0.25928,0.259288 v 0.51857 c 0,0.155573 0.10371,0.259287 0.25928,0.259287 h 0.51857 c 0.15557,0 0.25929,-0.103712 0.25929,-0.259287 v -0.51857 c 0,-0.155573 -0.10372,-0.259288 -0.25929,-0.259288 z m 0,2.074292 h -0.51857 c -0.15557,0 -0.25928,0.103712 -0.25928,0.259286 v 0.518573 c 0,0.155569 0.10371,0.259289 0.25928,0.259289 h 0.51857 c 0.15557,0 0.25929,-0.103717 0.25929,-0.259289 v -0.518573 c 0,-0.155572 -0.10372,-0.259286 -0.25929,-0.259286 z m 6.22288,-4.1485855 h -0.51857 c -0.15557,0 -0.25929,0.1037151 -0.25929,0.2592861 v 0.5185749 c 0,0.155571 0.10372,0.2592839 0.25929,0.2592839 h 0.51857 c 0.15557,0 0.25928,-0.1037129 0.25928,-0.2592839 V 8.4655066 c 0,-0.155571 -0.10371,-0.2592861 -0.25928,-0.2592861 z m 0,2.0742935 h -0.51857 c -0.15557,0 -0.25929,0.103713 -0.25929,0.259288 v 0.51857 c 0,0.155573 0.10372,0.259287 0.25929,0.259287 h 0.51857 c 0.15557,0 0.25928,-0.103712 0.25928,-0.259287 v -0.51857 c 0,-0.155573 -0.10371,-0.259288 -0.25928,-0.259288 z m -2.0743,0 h -0.51857 c -0.15557,0 -0.25928,0.103713 -0.25928,0.259288 v 0.51857 c 0,0.155573 0.10371,0.259287 0.25928,0.259287 h 0.51857 c 0.15557,0 0.25929,-0.103712 0.25929,-0.259287 v -0.51857 c 0,-0.155573 -0.10372,-0.259288 -0.25929,-0.259288 z m 0,-2.0742935 h -0.51857 c -0.15557,0 -0.25928,0.1037151 -0.25928,0.2592861 v 0.5185749 c 0,0.155571 0.10371,0.2592839 0.25928,0.2592839 h 0.51857 c 0.15557,0 0.25929,-0.1037129 0.25929,-0.2592839 V 8.4655066 c 0,-0.155571 -0.10372,-0.2592861 -0.25929,-0.2592861 z m 4.40788,-3.6300111 V 14.4291 c 0,0.570429 -0.46671,1.037145 -1.03715,1.037145 h -9.33432 c -0.57043,0 -1.03714,-0.466716 -1.03714,-1.037145 V 4.5762094 c 0,-0.570431 0.46671,-1.037145 1.03714,-1.037145 v 0.777859 c 0,0.15557 0.10371,0.259286 0.2593,0.259286 h 0.51857 c 0.15557,0 0.25929,-0.103714 0.25929,-0.259286 v -0.518576 c 0,-0.155586 0.10371,-0.259283 0.25928,-0.259283 h 0.51857 c 0.15557,0 0.25929,0.103714 0.25929,0.259283 v 0.518576 c 0,0.15557 0.10371,0.259286 0.25928,0.259286 h 0.51857 c 0.15557,0 0.25929,-0.103714 0.25929,-0.259286 v -0.518576 c 0,-0.155586 0.10371,-0.259283 0.2593,-0.259283 h 0.51857 c 0.15557,0 0.25929,0.103714 0.25929,0.259283 v 0.518576 c 0,0.15557 0.10371,0.259286 0.25928,0.259286 h 0.51857 c 0.15557,0 0.25929,-0.103714 0.25929,-0.259286 v -0.518576 c 0,-0.155586 0.10371,-0.259283 0.25928,-0.259283 h 0.51857 c 0.15557,0 0.25929,0.103714 0.25929,0.259283 v 0.518576 c 0,0.15557 0.10371,0.259286 0.2593,0.259286 h 0.51857 c 0.15557,0 0.25928,-0.103714 0.25928,-0.259286 v -0.518576 c 0,-0.155586 0.10372,-0.259283 0.25929,-0.259283 h 0.51857 c 0.15557,0 0.25928,0.103714 0.25928,0.259283 v 0.518576 c 0,0.15557 0.10372,0.259286 0.25929,0.259286 h 0.51857 c 0.15557,0 0.25929,-0.103714 0.25929,-0.259286 v -0.777859 c 0.57044,0 1.03715,0.466714 1.03715,1.037145 z M 435.94341,14.4291 V 7.1690744 h -9.33432 V 14.4291 Z"
       id="identity-long-time-account" />
  </g>
</svg>
