<?xml version="1.0" encoding="UTF-8" standalone="no"?>
<svg
   xmlns:dc="http://purl.org/dc/elements/1.1/"
   xmlns:cc="http://creativecommons.org/ns#"
   xmlns:rdf="http://www.w3.org/1999/02/22-rdf-syntax-ns#"
   xmlns:svg="http://www.w3.org/2000/svg"
   xmlns="http://www.w3.org/2000/svg"
   xmlns:sodipodi="http://sodipodi.sourceforge.net/DTD/sodipodi-0.dtd"
   xmlns:inkscape="http://www.inkscape.org/namespaces/inkscape"
   width="12mm"
   height="12mm"
   viewBox="0 0 12 12"
   version="1.1"
   id="svg8"
   sodipodi:docname="cards.svg"
   inkscape:version="1.0 (4035a4fb49, 2020-05-01)">
  <defs
     id="defs2" />
  <sodipodi:namedview
     id="base"
     pagecolor="#ffffff"
     bordercolor="#666666"
     borderopacity="1.0"
     inkscape:pageopacity="0.0"
     inkscape:pageshadow="2"
     inkscape:zoom="7.9195959"
     inkscape:cx="16.784207"
     inkscape:cy="29.962489"
     inkscape:document-units="mm"
     inkscape:current-layer="layer1"
     inkscape:document-rotation="0"
     showgrid="false"
     fit-margin-top="0"
     fit-margin-left="0"
     fit-margin-right="0"
     fit-margin-bottom="0"
     inkscape:window-width="1080"
     inkscape:window-height="1080"
     inkscape:window-x="1184"
     inkscape:window-y="464"
     inkscape:window-maximized="0" />
  <metadata
     id="metadata5">
    <rdf:RDF>
      <cc:Work
         rdf:about="">
        <dc:format>image/svg+xml</dc:format>
        <dc:type
           rdf:resource="http://purl.org/dc/dcmitype/StillImage" />
        <dc:title />
      </cc:Work>
    </rdf:RDF>
  </metadata>
  <g
     inkscape:label="Layer 1"
     inkscape:groupmode="layer"
     id="layer1"
     transform="translate(-425.29611,-3.4222728)">
    <path
       d="m 427.01054,10.546277 h 0.0489 v 0.97713 c 0,0 -0.0489,0 -0.0489,0 -0.48858,0 -0.87941,-0.342 -0.97712,-0.83056 l -0.7817,-4.3481712 c -0.0489,-0.24428 0,-0.537417 0.1466,-0.732842 0.14659,-0.195417 0.39084,-0.341991 0.63512,-0.390845 l 7.23068,-1.270258 c 0.53742,-0.09773 1.02597,0.244281 1.12369,0.781697 l 0.29314,1.758811 h -0.9771 l -0.29315,-1.563384 -7.23068,1.270248 z m 10.30861,-2.0519501 v 4.3970301 c 0,0.53742 -0.43971,0.97715 -0.97713,0.97715 h -7.32839 c -0.53741,0 -0.97712,-0.43973 -0.97712,-0.97715 V 8.4943269 c 0,-0.53741 0.43971,-0.9771102 0.97712,-0.9771102 h 7.32839 c 0.53742,0 0.97713,0.4397002 0.97713,0.9771102 z m -5.86272,2.1985201 c 0,-0.14656 -0.0977,-0.24427 -0.2443,-0.24427 h -1.46567 c -0.1466,0 -0.24428,0.0977 -0.24428,0.24427 v 1.4657 c 0,0.14656 0.0977,0.24426 0.24428,0.24426 h 1.46567 c 0.1466,0 0.2443,-0.0977 0.2443,-0.24426 z"
       id="identity-paypal-linked"
       style="stroke-width:0.475165;font-variation-settings:normal;opacity:1;vector-effect:none;fill:#0b6a0b;fill-opacity:1;stroke-linecap:butt;stroke-linejoin:miter;stroke-miterlimit:4;stroke-dasharray:none;stroke-dashoffset:0;stroke-opacity:1;stop-color:#000000;stop-opacity:1" />
  </g>
</svg>
