<?xml version="1.0" encoding="UTF-8" standalone="no"?>
<svg
   xmlns:dc="http://purl.org/dc/elements/1.1/"
   xmlns:cc="http://creativecommons.org/ns#"
   xmlns:rdf="http://www.w3.org/1999/02/22-rdf-syntax-ns#"
   xmlns:svg="http://www.w3.org/2000/svg"
   xmlns="http://www.w3.org/2000/svg"
   xmlns:sodipodi="http://sodipodi.sourceforge.net/DTD/sodipodi-0.dtd"
   xmlns:inkscape="http://www.inkscape.org/namespaces/inkscape"
   width="12mm"
   height="12mm"
   viewBox="0 0 12 12"
   version="1.1"
   id="svg8"
   sodipodi:docname="fingerprint.svg"
   inkscape:version="1.0 (4035a4fb49, 2020-05-01)">
  <defs
     id="defs2" />
  <sodipodi:namedview
     id="base"
     pagecolor="#ffffff"
     bordercolor="#666666"
     borderopacity="1.0"
     inkscape:pageopacity="0.0"
     inkscape:pageshadow="2"
     inkscape:zoom="7.9195959"
     inkscape:cx="16.784207"
     inkscape:cy="29.962489"
     inkscape:document-units="mm"
     inkscape:current-layer="layer1"
     inkscape:document-rotation="0"
     showgrid="false"
     fit-margin-top="0"
     fit-margin-left="0"
     fit-margin-right="0"
     fit-margin-bottom="0"
     inkscape:window-width="1080"
     inkscape:window-height="1080"
     inkscape:window-x="1184"
     inkscape:window-y="464"
     inkscape:window-maximized="0" />
  <metadata
     id="metadata5">
    <rdf:RDF>
      <cc:Work
         rdf:about="">
        <dc:format>image/svg+xml</dc:format>
        <dc:type
           rdf:resource="http://purl.org/dc/dcmitype/StillImage" />
        <dc:title />
      </cc:Work>
    </rdf:RDF>
  </metadata>
  <g
     inkscape:label="Layer 1"
     inkscape:groupmode="layer"
     id="layer1"
     transform="translate(-425.29611,-3.4222728)">
    <path
       d="m 430.63598,11.995677 c -0.0404,0.08076 -0.12109,0.323012 -0.96904,2.059209 -0.0808,0.121132 -0.20188,0.201884 -0.36339,0.201884 -0.0808,0 -0.12113,0 -0.20188,-0.04038 -0.20189,-0.08078 -0.28264,-0.363397 -0.16153,-0.524905 0.80754,-1.574689 0.92867,-1.857325 0.92867,-1.938078 0.0404,-0.121132 0.16151,-0.524899 0.20188,-0.726781 0.0404,-0.201886 0.24226,-0.363391 0.48452,-0.323013 0.20188,0.04038 0.36339,0.242259 0.32301,0.48452 -0.0807,0.242259 -0.16152,0.524896 -0.24225,0.807532 z m -2.90712,-2.3418468 c 0,-0.6056511 0.16151,-1.2113022 0.44414,-1.776576 0.12115,-0.2018811 0.0404,-0.4441431 -0.16151,-0.5248953 -0.20188,-0.1211307 -0.44414,-0.04038 -0.5249,0.161508 -0.36338,0.6460263 -0.52489,1.4131822 -0.52489,2.1399651 v 0.403765 c 0,0.524897 -0.0807,1.009417 -0.28264,1.493937 -0.0807,0.201885 0.0404,0.444143 0.24226,0.524899 0.0404,0 0.0807,0.04038 0.12115,0.04038 0.16153,0 0.32301,-0.121132 0.36339,-0.28264 0.20189,-0.565271 0.32301,-1.170922 0.32301,-1.776572 z m 3.31089,3.8357838 c -0.20189,-0.08076 -0.44415,0 -0.5249,0.201884 l -0.20188,0.444145 c -0.0807,0.201884 0,0.44414 0.20188,0.524899 0.0404,0.04032 0.12113,0.04032 0.16151,0.04032 0.16152,0 0.28264,-0.08077 0.36339,-0.242255 l 0.20188,-0.444139 c 0.0808,-0.201886 0,-0.444145 -0.20188,-0.524899 z m 0.32301,-9.246259 c 0.24226,0 0.40377,-0.161507 0.40377,-0.403765 0,-0.242261 -0.16151,-0.403769 -0.40377,-0.403769 -3.35126,0 -6.0565,2.7052381 -6.0565,6.0565019 0,0.2422602 0,0.4845201 0.0404,0.7671581 0.0404,0.201883 0.20188,0.363389 0.40376,0.363389 0,0 0.0404,0 0.0404,0 0.20188,-0.04038 0.36339,-0.24226 0.36339,-0.444145 -0.0404,-0.24226 -0.0404,-0.4845189 -0.0404,-0.6864021 0,-2.9071199 2.34185,-5.2489679 5.24897,-5.2489679 z m -0.32301,0.807532 c -0.92867,0.08076 -1.77658,0.403767 -2.50336,1.049794 -0.16152,0.1615091 -0.20188,0.4037661 -0.0404,0.565276 0.0808,0.08076 0.20188,0.1615062 0.32301,0.1615062 0.0808,0 0.20189,-0.04038 0.24226,-0.08075 0.60565,-0.4845201 1.29206,-0.8075321 2.05922,-0.8479101 0.80753,-0.04038 1.57468,0.161508 2.26109,0.6056481 0.20188,0.1211278 0.44414,0.08075 0.56527,-0.1211342 0.12111,-0.2018808 0.0808,-0.4441409 -0.12115,-0.5652739 -0.8479,-0.56527 -1.77656,-0.807532 -2.78598,-0.767155 z m 3.47239,1.8977051 c -0.20188,0.121131 -0.24226,0.363389 -0.12114,0.5652748 0.40376,0.6056493 0.60564,1.2920512 0.60564,1.978456 v 0.5248981 c 0,0.646024 -0.1615,1.292051 -0.44414,1.897702 l -0.56526,1.2113 c -0.0808,0.201885 0,0.444144 0.20188,0.524898 0.0404,0.04037 0.12113,0.04037 0.16153,0.04037 0.1615,0 0.28263,-0.08075 0.36339,-0.242261 l 0.56527,-1.2113 c 0.32301,-0.686403 0.48452,-1.453559 0.48452,-2.220717 V 9.4923171 c 0,-0.8882861 -0.24227,-1.6958201 -0.72679,-2.4629782 -0.0807,-0.1615077 -0.36338,-0.2018829 -0.52489,-0.08076 z M 434.31026,4.202979 c -0.20189,-0.121131 -0.44414,-0.04037 -0.56527,0.161507 -0.12113,0.201885 -0.0404,0.444143 0.1615,0.565274 1.65545,0.928663 2.66487,2.7052372 2.66487,4.5625651 0,0.2018829 0,0.4037671 -0.0404,0.6864019 -0.0404,0.201884 0.12109,0.403767 0.36338,0.444143 0,0 0.0404,0 0.0404,0 0.20189,0 0.3634,-0.161506 0.40377,-0.363389 0.0404,-0.2826359 0.0404,-0.565273 0.0404,-0.7671559 0.0404,-2.1803421 -1.13055,-4.1991741 -3.06863,-5.2893441 z m -0.12113,5.2893439 c 0,-0.8075347 -0.36339,-1.5746899 -0.96904,-2.139964 -0.60566,-0.5248968 -1.41319,-0.7671559 -2.22073,-0.6864019 -1.41318,0.1615062 -2.46297,1.4131822 -2.46297,2.9071192 v 0.4441448 c 0,0.646024 -0.16153,1.292051 -0.44415,1.897702 l -0.44413,0.928664 c -0.0808,0.201883 0,0.444143 0.20188,0.524895 0.20189,0.08076 0.44414,0 0.5249,-0.201881 l 0.44414,-0.928663 c 0.32301,-0.686405 0.48452,-1.453561 0.48452,-2.220717 V 9.5730762 c 0,-1.0497932 0.76716,-1.9380812 1.7362,-2.0995881 0.60565,-0.08076 1.17092,0.08075 1.61506,0.4845219 0.44415,0.4037671 0.68641,0.928664 0.68641,1.5343129 v 0.5248981 c 0,0.646024 -0.16151,1.292051 -0.44414,1.897702 l -1.00942,2.139963 c -0.0807,0.201884 0,0.444143 0.20188,0.524897 0.0404,0.04032 0.12115,0.04032 0.16151,0.04032 0.16153,0 0.28264,-0.08077 0.36339,-0.242265 l 1.00942,-2.139898 c 0.32301,-0.686405 0.48451,-1.45356 0.48451,-2.220719 V 9.4923221 Z m -2.09959,2.7859911 c 0.32301,-0.686404 0.48452,-1.453561 0.48452,-2.220717 V 9.5326999 c 0,-0.3633909 -0.20188,-0.7267818 -0.48452,-0.969042 -0.32301,-0.2422588 -0.6864,-0.2826348 -1.04979,-0.2018808 -0.48452,0.161507 -0.84791,0.6056501 -0.84791,1.1305458 0,0.2422602 0.16152,0.4037672 0.36339,0.4441421 0.20188,0 0.40377,-0.1615049 0.44414,-0.3633888 0,-0.2018832 0.12115,-0.3633891 0.28264,-0.4037672 0.16152,-0.04038 0.28263,0 0.36339,0.08076 0.12113,0.08076 0.16151,0.201884 0.16151,0.3230161 v 0.5248959 c 0,0.646025 -0.16151,1.292054 -0.44414,1.897702 l -0.12114,0.242261 c -0.0807,0.201884 0,0.444141 0.20189,0.524897 0.0404,0.04038 0.12115,0.04038 0.16151,0.04038 0.1615,0 0.28263,-0.08076 0.36339,-0.24226 z"
       id="identity"
       style="stroke-width:0.475165;font-variation-settings:normal;opacity:1;vector-effect:none;fill:#0b6a0b;fill-opacity:1;stroke-linecap:butt;stroke-linejoin:miter;stroke-miterlimit:4;stroke-dasharray:none;stroke-dashoffset:0;stroke-opacity:1;stop-color:#000000;stop-opacity:1" />
  </g>
</svg>
