<?xml version="1.0" encoding="UTF-8" standalone="no"?>
<svg
   xmlns:dc="http://purl.org/dc/elements/1.1/"
   xmlns:cc="http://creativecommons.org/ns#"
   xmlns:rdf="http://www.w3.org/1999/02/22-rdf-syntax-ns#"
   xmlns:svg="http://www.w3.org/2000/svg"
   xmlns="http://www.w3.org/2000/svg"
   xmlns:sodipodi="http://sodipodi.sourceforge.net/DTD/sodipodi-0.dtd"
   xmlns:inkscape="http://www.inkscape.org/namespaces/inkscape"
   width="12mm"
   height="12mm"
   viewBox="0 0 12 12"
   version="1.1"
   id="svg8"
   sodipodi:docname="google.svg"
   inkscape:version="1.0 (4035a4fb49, 2020-05-01)">
  <defs
     id="defs2" />
  <sodipodi:namedview
     id="base"
     pagecolor="#ffffff"
     bordercolor="#666666"
     borderopacity="1.0"
     inkscape:pageopacity="0.0"
     inkscape:pageshadow="2"
     inkscape:zoom="7.9195959"
     inkscape:cx="16.784207"
     inkscape:cy="29.962489"
     inkscape:document-units="mm"
     inkscape:current-layer="layer1"
     inkscape:document-rotation="0"
     showgrid="false"
     fit-margin-top="0"
     fit-margin-left="0"
     fit-margin-right="0"
     fit-margin-bottom="0"
     inkscape:window-width="1080"
     inkscape:window-height="1080"
     inkscape:window-x="1184"
     inkscape:window-y="464"
     inkscape:window-maximized="0" />
  <metadata
     id="metadata5">
    <rdf:RDF>
      <cc:Work
         rdf:about="">
        <dc:format>image/svg+xml</dc:format>
        <dc:type
           rdf:resource="http://purl.org/dc/dcmitype/StillImage" />
        <dc:title />
      </cc:Work>
    </rdf:RDF>
  </metadata>
  <g
     inkscape:label="Layer 1"
     inkscape:groupmode="layer"
     id="layer1"
     transform="translate(-425.29611,-3.4222728)">
    <path
       id="identity-google"
       d="m 433.78136,6.6854508 c -0.43281,-0.4064101 -1.19289,-0.89315 -2.31802,-0.89315 -1.5849,0 -2.93064,1.0460201 -3.41679,2.49126 a 3.8783564,3.8783564 0 0 0 -0.19301,1.1856702 c 0,0.4130198 0.0731,0.81285 0.19961,1.18569 0.47955,1.44524 1.82529,2.49066 3.4108,2.49066 0.89195,0 1.5711,-0.24577 2.07764,-0.59943 0.79904,-0.55929 1.15872,-1.39189 1.22465,-1.94398 h -3.3029 V 8.3776707 h 5.6275 c 0.0871,0.3728501 0.12643,0.7325101 0.12643,1.2252502 0,1.8252801 -0.65279,3.3634401 -1.78514,4.4094401 -0.99147,0.91776 -2.35039,1.45125 -3.96886,1.45125 a 5.9901725,5.9901725 0 0 1 -5.35478,-3.3035 5.9997634,5.9997634 0 0 1 -0.63959,-2.69088 c 0,-0.96569 0.23318,-1.8780102 0.63959,-2.6908602 a 5.9901725,5.9901725 0 0 1 5.35478,-3.30349 c 1.61847,0 2.97081,0.59285 4.00963,1.55853 z"
       style="stroke-width:0.475165;font-variation-settings:normal;opacity:1;vector-effect:none;fill:#0b6a0b;fill-opacity:1;stroke-linecap:butt;stroke-linejoin:miter;stroke-miterlimit:4;stroke-dasharray:none;stroke-dashoffset:0;stroke-opacity:1;stop-color:#000000;stop-opacity:1" />
  </g>
</svg>
