<?xml version="1.0" encoding="UTF-8"?>
<svg width="16" height="16" version="1.1" xmlns="http://www.w3.org/2000/svg">
    <circle cx="8" cy="8" r="8" fill="#009902"/>
    <path d="m11.072 5.5287c0.04538 1.1183-0.71092 2.0903-1.6093 2.6741-0.3431 0.24285-0.70297 0.46079-1.0662 0.67192v1.4647h-1.1652v-1.9854c0.88063-0.51705 1.9139-0.98505 2.3768-1.9564 0.25055-0.63603 0.20518-1.5215-0.43514-1.9111-0.85695-0.5196-1.9397-0.33736-2.8265 0.0051747-0.36805 0.14216-0.77546 0.31462-0.77546 0.31462-0.00389-0.33538 0.00125-0.96003 3.5e-4 -1.2955 1.2759-0.42915 2.7124-0.67553 4.0082-0.18878 0.87866 0.35546 1.5417 1.2382 1.4925 2.2068zm-2.5713 7.4145h-1.328v-1.3735h1.328z" fill="#fff" stroke="#fff" stroke-width=".5"/>
</svg>
