<?xml version="1.0" encoding="UTF-8" standalone="no"?>
<svg
   xmlns:dc="http://purl.org/dc/elements/1.1/"
   xmlns:cc="http://creativecommons.org/ns#"
   xmlns:rdf="http://www.w3.org/1999/02/22-rdf-syntax-ns#"
   xmlns:svg="http://www.w3.org/2000/svg"
   xmlns="http://www.w3.org/2000/svg"
   xmlns:sodipodi="http://sodipodi.sourceforge.net/DTD/sodipodi-0.dtd"
   xmlns:inkscape="http://www.inkscape.org/namespaces/inkscape"
   width="12mm"
   height="12mm"
   viewBox="0 0 12 12"
   version="1.1"
   id="svg8"
   sodipodi:docname="instagram.svg"
   inkscape:version="1.0 (4035a4fb49, 2020-05-01)">
  <defs
     id="defs2" />
  <sodipodi:namedview
     id="base"
     pagecolor="#ffffff"
     bordercolor="#666666"
     borderopacity="1.0"
     inkscape:pageopacity="0.0"
     inkscape:pageshadow="2"
     inkscape:zoom="7.9195959"
     inkscape:cx="16.784207"
     inkscape:cy="29.962489"
     inkscape:document-units="mm"
     inkscape:current-layer="layer1"
     inkscape:document-rotation="0"
     showgrid="false"
     fit-margin-top="0"
     fit-margin-left="0"
     fit-margin-right="0"
     fit-margin-bottom="0"
     inkscape:window-width="1080"
     inkscape:window-height="1080"
     inkscape:window-x="1184"
     inkscape:window-y="464"
     inkscape:window-maximized="0" />
  <metadata
     id="metadata5">
    <rdf:RDF>
      <cc:Work
         rdf:about="">
        <dc:format>image/svg+xml</dc:format>
        <dc:type
           rdf:resource="http://purl.org/dc/dcmitype/StillImage" />
        <dc:title />
      </cc:Work>
    </rdf:RDF>
  </metadata>
  <g
     inkscape:label="Layer 1"
     inkscape:groupmode="layer"
     id="layer1"
     transform="translate(-425.29611,-3.4222728)">
    <path
       id="identity-instagram"
       d="m 431.25121,4.4959968 c 1.59002,0 1.7788,0.0059 2.40706,0.03455 1.61386,0.07324 2.36718,0.839077 2.44101,2.441006 0.0286,0.627672 0.034,0.815854 0.034,2.405873 0,1.5912112 -0.005,1.7793942 -0.034,2.4070642 -0.0738,1.600142 -0.82597,2.367162 -2.4416,2.441004 -0.62767,0.02854 -0.81586,0.03454 -2.40647,0.03454 -1.59001,0 -1.77881,-0.0059 -2.40588,-0.03454 -1.6186,-0.07383 -2.36835,-0.843243 -2.44159,-2.441599 -0.0286,-0.62767 -0.0347,-0.815852 -0.0347,-2.4064682 0,-1.590019 0.005,-1.778201 0.0347,-2.405873 0.0738,-1.60193 0.82597,-2.368355 2.44159,-2.441603 0.62768,-0.02798 0.81587,-0.03394 2.40588,-0.03394 z m 0,-1.07371 c -1.6174,0 -1.81988,0.0072 -2.45472,0.03573 -2.16288,0.09946 -3.36462,1.299408 -3.46408,3.464099 -0.0302,0.635412 -0.0363,0.837885 -0.0363,2.4553 0,1.6174132 0.007,1.8204832 0.0358,2.4552982 0.0994,2.162899 1.29941,3.364648 3.46412,3.464098 0.63539,0.02856 0.83789,0.03575 2.45527,0.03575 1.61742,0 1.8205,-0.0072 2.45531,-0.03575 2.16113,-0.09944 3.36585,-1.299411 3.46351,-3.464098 0.0297,-0.634815 0.0363,-0.837885 0.0363,-2.4552982 0,-1.617415 -0.007,-1.819888 -0.0358,-2.454705 -0.0971,-2.161118 -1.29823,-3.364649 -3.46352,-3.464098 -0.63539,-0.03038 -0.83847,-0.03634 -2.45589,-0.03634 z m 0,2.897169 a 3.0579591,3.0579591 0 1 0 0,6.1159182 3.0579591,3.0579591 0 0 0 0,-6.1159182 z m 0,5.0428032 a 1.984845,1.984845 0 1 1 0,-3.9696892 1.984845,1.984845 0 0 1 0,3.9696892 z m 3.17885,-5.8777122 a 0.71461564,0.71461564 0 1 0 0,1.429231 0.71461564,0.71461564 0 0 0 0,-1.429231 z"
       style="stroke-width:0.475165;font-variation-settings:normal;opacity:1;vector-effect:none;fill:#0b6a0b;fill-opacity:1;stroke-linecap:butt;stroke-linejoin:miter;stroke-miterlimit:4;stroke-dasharray:none;stroke-dashoffset:0;stroke-opacity:1;stop-color:#000000;stop-opacity:1" />
  </g>
</svg>
