<?xml version="1.0" encoding="UTF-8" standalone="no"?>
<svg
   xmlns:dc="http://purl.org/dc/elements/1.1/"
   xmlns:cc="http://creativecommons.org/ns#"
   xmlns:rdf="http://www.w3.org/1999/02/22-rdf-syntax-ns#"
   xmlns:svg="http://www.w3.org/2000/svg"
   xmlns="http://www.w3.org/2000/svg"
   xmlns:sodipodi="http://sodipodi.sourceforge.net/DTD/sodipodi-0.dtd"
   xmlns:inkscape="http://www.inkscape.org/namespaces/inkscape"
   width="12mm"
   height="12mm"
   viewBox="0 0 12 12"
   version="1.1"
   id="svg8"
   sodipodi:docname="link.svg"
   inkscape:version="1.0 (4035a4fb49, 2020-05-01)">
  <defs
     id="defs2" />
  <sodipodi:namedview
     id="base"
     pagecolor="#ffffff"
     bordercolor="#666666"
     borderopacity="1.0"
     inkscape:pageopacity="0.0"
     inkscape:pageshadow="2"
     inkscape:zoom="7.9195959"
     inkscape:cx="16.784207"
     inkscape:cy="29.962489"
     inkscape:document-units="mm"
     inkscape:current-layer="layer1"
     inkscape:document-rotation="0"
     showgrid="false"
     fit-margin-top="0"
     fit-margin-left="0"
     fit-margin-right="0"
     fit-margin-bottom="0"
     inkscape:window-width="1080"
     inkscape:window-height="1080"
     inkscape:window-x="1184"
     inkscape:window-y="464"
     inkscape:window-maximized="0" />
  <metadata
     id="metadata5">
    <rdf:RDF>
      <cc:Work
         rdf:about="">
        <dc:format>image/svg+xml</dc:format>
        <dc:type
           rdf:resource="http://purl.org/dc/dcmitype/StillImage" />
        <dc:title />
      </cc:Work>
    </rdf:RDF>
  </metadata>
  <g
     inkscape:label="Layer 1"
     inkscape:groupmode="layer"
     id="layer1"
     transform="translate(-425.29611,-3.4222728)">
    <path
       d="m 437.37226,8.072606 v 2.52609 c 0,1.26303 -1.01043,2.273461 -2.27348,2.273461 h -3.5365 c -1.26304,0 -2.27347,-1.010431 -2.27347,-2.273461 V 8.8304261 c 0,-0.30314 0.2021,-0.5052001 0.50522,-0.5052001 h 0.50521 c 0.30312,0 0.5052,0.2020601 0.5052,0.5052001 v 1.7682699 c 0,0.40416 0.35367,0.75782 0.75784,0.75782 h 3.5365 c 0.40418,0 0.75784,-0.35366 0.75784,-0.75782 v -2.52609 c 0,-0.40417 -0.35366,-0.75782 -0.75784,-0.75782 h -0.80833 c -0.10102,0 -0.20209,-0.0507 -0.25261,-0.15164 l -0.35366,-1.01042 c -0.0506,-0.15164 0.0506,-0.35366 0.25261,-0.35366 h 1.16199 c 1.26305,0 2.27348,1.01042 2.27348,2.27347 z m -8.79073,3.43545 c -0.0506,-0.10102 -0.15162,-0.15163 -0.25262,-0.15163 h -0.80835 c -0.40417,0 -0.75782,-0.35365 -0.75782,-0.75781 v -2.52608 c 0,-0.40418 0.35365,-0.75782 0.75782,-0.75782 h 3.53652 c 0.40415,0 0.75781,0.35364 0.75781,0.75782 v 1.76825 c 0,0.30314 0.20208,0.50521 0.50521,0.50521 h 0.50524 c 0.30311,0 0.50519,-0.20207 0.50519,-0.50521 v -1.76825 c 0,-1.26305 -1.01043,-2.27347 -2.27345,-2.27347 h -3.53652 c -1.26304,0 -2.27346,1.01042 -2.27346,2.27347 v 2.52608 c 0,1.26303 1.01042,2.273441 2.27346,2.273441 h 1.16199 c 0.1516,0 0.30312,-0.15145 0.25262,-0.353631 z"
       id="identity-linked-profile"
       style="stroke-width:0.475165;font-variation-settings:normal;opacity:1;vector-effect:none;fill:#0b6a0b;fill-opacity:1;stroke-linecap:butt;stroke-linejoin:miter;stroke-miterlimit:4;stroke-dasharray:none;stroke-dashoffset:0;stroke-opacity:1;stop-color:#000000;stop-opacity:1" />
  </g>
</svg>
