<?xml version="1.0" encoding="UTF-8" standalone="no"?>
<svg
   xmlns:dc="http://purl.org/dc/elements/1.1/"
   xmlns:cc="http://creativecommons.org/ns#"
   xmlns:rdf="http://www.w3.org/1999/02/22-rdf-syntax-ns#"
   xmlns:svg="http://www.w3.org/2000/svg"
   xmlns="http://www.w3.org/2000/svg"
   xmlns:sodipodi="http://sodipodi.sourceforge.net/DTD/sodipodi-0.dtd"
   xmlns:inkscape="http://www.inkscape.org/namespaces/inkscape"
   width="12mm"
   height="12mm"
   viewBox="0 0 12 12"
   version="1.1"
   id="svg8"
   sodipodi:docname="location.svg"
   inkscape:version="1.0 (4035a4fb49, 2020-05-01)">
  <defs
     id="defs2" />
  <sodipodi:namedview
     id="base"
     pagecolor="#ffffff"
     bordercolor="#666666"
     borderopacity="1.0"
     inkscape:pageopacity="0.0"
     inkscape:pageshadow="2"
     inkscape:zoom="7.9195959"
     inkscape:cx="16.784207"
     inkscape:cy="29.962489"
     inkscape:document-units="mm"
     inkscape:current-layer="layer1"
     inkscape:document-rotation="0"
     showgrid="false"
     fit-margin-top="0"
     fit-margin-left="0"
     fit-margin-right="0"
     fit-margin-bottom="0"
     inkscape:window-width="1080"
     inkscape:window-height="1080"
     inkscape:window-x="1184"
     inkscape:window-y="464"
     inkscape:window-maximized="0" />
  <metadata
     id="metadata5">
    <rdf:RDF>
      <cc:Work
         rdf:about="">
        <dc:format>image/svg+xml</dc:format>
        <dc:type
           rdf:resource="http://purl.org/dc/dcmitype/StillImage" />
        <dc:title />
      </cc:Work>
    </rdf:RDF>
  </metadata>
  <g
     inkscape:label="Layer 1"
     inkscape:groupmode="layer"
     id="layer1"
     transform="translate(-425.29611,-3.4222728)">
    <path
       d="m 437.13481,14.669167 c -0.19815,0.247672 -0.49535,0.39627 -0.79255,0.39627 h -10.0554 c -0.29723,0 -0.59441,-0.148596 -0.79256,-0.39627 -0.19814,-0.247669 -0.24766,-0.594407 -0.14867,-0.891612 l 1.18882,-3.9627293 c 0.14867,-0.396272 0.49535,-0.693478 0.94115,-0.693478 h 0.39626 c 0.14867,0.346741 0.34675,0.693478 0.54486,0.9906853 h -0.94111 l -1.18881,3.962727 h 10.05542 l -1.18882,-3.962727 h -0.94115 c 0.19813,-0.2972073 0.39628,-0.6439443 0.54488,-0.9906853 h 0.39627 c 0.44579,0 0.84207,0.297206 0.94114,0.693478 l 1.18882,3.9627293 c 0.099,0.297205 0,0.643943 -0.14867,0.891612 z m -6.14223,-2.872977 c -0.49533,-0.544873 -2.82343,-2.9720442 -2.82343,-5.0524752 0,-1.7336921 1.38694,-3.0711121 3.07111,-3.0711121 1.68416,0 3.0711,1.386954 3.0711,3.0711121 0,2.080431 -2.3281,4.5076022 -2.82343,5.0524752 -0.0495,0.04952 -0.14867,0.148598 -0.2972,0.148598 -0.14867,0 -0.14867,-0.04952 -0.19815,-0.148598 z m 0.2972,-3.3187812 c 0.94114,0 1.73369,-0.792547 1.73369,-1.733694 0,-0.9411491 -0.79255,-1.7336921 -1.73369,-1.7336921 -0.94115,0 -1.73369,0.792543 -1.73369,1.7336921 0,0.941147 0.79254,1.733694 1.73369,1.733694 z"
       id="identity-location-given"
       style="stroke-width:0.475165;font-variation-settings:normal;opacity:1;vector-effect:none;fill:#0b6a0b;fill-opacity:1;stroke-linecap:butt;stroke-linejoin:miter;stroke-miterlimit:4;stroke-dasharray:none;stroke-dashoffset:0;stroke-opacity:1;stop-color:#000000;stop-opacity:1" />
  </g>
</svg>
