<?xml version="1.0" encoding="UTF-8" standalone="no"?>
<svg
   xmlns:dc="http://purl.org/dc/elements/1.1/"
   xmlns:cc="http://creativecommons.org/ns#"
   xmlns:rdf="http://www.w3.org/1999/02/22-rdf-syntax-ns#"
   xmlns:svg="http://www.w3.org/2000/svg"
   xmlns="http://www.w3.org/2000/svg"
   xmlns:sodipodi="http://sodipodi.sourceforge.net/DTD/sodipodi-0.dtd"
   xmlns:inkscape="http://www.inkscape.org/namespaces/inkscape"
   width="12mm"
   height="12mm"
   viewBox="0 0 12 12"
   version="1.1"
   id="svg8"
   sodipodi:docname="phone.svg"
   inkscape:version="1.0 (4035a4fb49, 2020-05-01)">
  <defs
     id="defs2" />
  <sodipodi:namedview
     id="base"
     pagecolor="#ffffff"
     bordercolor="#666666"
     borderopacity="1.0"
     inkscape:pageopacity="0.0"
     inkscape:pageshadow="2"
     inkscape:zoom="7.9195959"
     inkscape:cx="16.784207"
     inkscape:cy="29.962489"
     inkscape:document-units="mm"
     inkscape:current-layer="layer1"
     inkscape:document-rotation="0"
     showgrid="false"
     fit-margin-top="0"
     fit-margin-left="0"
     fit-margin-right="0"
     fit-margin-bottom="0"
     inkscape:window-width="1080"
     inkscape:window-height="1080"
     inkscape:window-x="1184"
     inkscape:window-y="464"
     inkscape:window-maximized="0" />
  <metadata
     id="metadata5">
    <rdf:RDF>
      <cc:Work
         rdf:about="">
        <dc:format>image/svg+xml</dc:format>
        <dc:type
           rdf:resource="http://purl.org/dc/dcmitype/StillImage" />
        <dc:title />
      </cc:Work>
    </rdf:RDF>
  </metadata>
  <g
     inkscape:label="Layer 1"
     inkscape:groupmode="layer"
     id="layer1"
     transform="translate(-425.29611,-3.4222728)">
    <path
       d="m 431.87019,12.884181 h -4.26866 V 6.4811768 h 3.03076 c 0,-0.12807 -0.0427,-0.2988061 -0.0427,-0.4268661 0,-0.298806 0.0427,-0.597614 0.12803,-0.853734 h -3.32956 c -0.5976,0 -1.06716,0.469555 -1.06716,1.0671671 v 8.1104712 c 0,0.597613 0.46956,1.067167 1.06716,1.067167 h 4.69553 c 0.59763,0 1.06718,-0.469554 1.06718,-1.067167 V 9.3411866 c -0.46955,-0.1280527 -0.89643,-0.341494 -1.2806,-0.6402998 z m -1.70746,1.494034 c 0,0.128051 -0.0853,0.213433 -0.21345,0.213433 h -0.42686 c -0.12803,0 -0.21343,-0.08539 -0.21343,-0.213433 v -0.426867 c 0,-0.128051 0.0853,-0.213433 0.21343,-0.213433 h 0.42686 c 0.12803,0 0.21345,0.08538 0.21345,0.213433 z m 3.8418,-10.8851053 c -1.40867,0 -2.5612,1.152541 -2.5612,2.561201 0,1.408661 1.15253,2.5612022 2.5612,2.5612022 1.40865,0 2.5612,-1.1525412 2.5612,-2.5612022 0,-1.40866 -1.15255,-2.561201 -2.5612,-2.561201 z m 1.36597,1.750153 -1.3233,1.9635881 c -0.12804,0.1707529 -0.38417,0.2134331 -0.55491,0.04269 l -0.93911,-0.9391091 c -0.0427,-0.04269 -0.0427,-0.128051 0,-0.170751 l 0.17077,-0.256123 c 0.0427,-0.04268 0.12803,-0.08538 0.17077,-0.04268 l 0.76836,0.341494 1.36598,-1.2806 c 0.0427,-0.04269 0.12804,-0.04269 0.17077,0 l 0.21344,0.17075 c 0,0.04269 0,0.128053 -0.0427,0.170753 z"
       id="identity-sms-chek"
       style="stroke-width:0.475165;font-variation-settings:normal;opacity:1;vector-effect:none;fill:#0b6a0b;fill-opacity:1;stroke-linecap:butt;stroke-linejoin:miter;stroke-miterlimit:4;stroke-dasharray:none;stroke-dashoffset:0;stroke-opacity:1;stop-color:#000000;stop-opacity:1" />
  </g>
</svg>
