<?xml version="1.0" encoding="UTF-8"?>
<svg width="12" height="12" xmlns="http://www.w3.org/2000/svg">
    <circle cx="6" cy="6" r="5.25" fill="#fffdfd" stroke-width="1.5" stroke="#069"/>
    <g transform="scale(1.0027 .99733)" fill="#090">
        <path d="m8.9759 6.0221c0.0382 1.2596-0.82842 2.5205-2.0681 2.8338-0.9189 0.25122-1.8795 0.14473-2.8197 0.16821h-0.79696v-6.0161c0.96319 0.013019 1.9284-0.030724 2.8902 0.032447 0.81038 0.073006 1.6413 0.38686 2.1543 1.0456 0.44064 0.53916 0.65287 1.2444 0.64025 1.9361zm-1.7542-0.011643c0.01896-0.57777-0.23035-1.2163-0.78157-1.4718-0.44691-0.22794-0.96245-0.17675-1.4472-0.18383v3.3182c0.56191-0.0040457 1.1863 0.057529 1.6626-0.30449 0.42405-0.31122 0.57835-0.85293 0.56611-1.3582z"/>
    </g>
</svg>
