<?xml version="1.0" encoding="UTF-8" standalone="no"?>
<svg
   xmlns:dc="http://purl.org/dc/elements/1.1/"
   xmlns:cc="http://creativecommons.org/ns#"
   xmlns:rdf="http://www.w3.org/1999/02/22-rdf-syntax-ns#"
   xmlns:svg="http://www.w3.org/2000/svg"
   xmlns="http://www.w3.org/2000/svg"
   xmlns:sodipodi="http://sodipodi.sourceforge.net/DTD/sodipodi-0.dtd"
   xmlns:inkscape="http://www.inkscape.org/namespaces/inkscape"
   width="12mm"
   height="12mm"
   viewBox="0 0 12 12"
   version="1.1"
   id="svg8"
   sodipodi:docname="scales.svg"
   inkscape:version="1.0 (4035a4fb49, 2020-05-01)">
  <defs
     id="defs2" />
  <sodipodi:namedview
     id="base"
     pagecolor="#ffffff"
     bordercolor="#666666"
     borderopacity="1.0"
     inkscape:pageopacity="0.0"
     inkscape:pageshadow="2"
     inkscape:zoom="7.9195959"
     inkscape:cx="16.784207"
     inkscape:cy="29.962489"
     inkscape:document-units="mm"
     inkscape:current-layer="layer1"
     inkscape:document-rotation="0"
     showgrid="false"
     fit-margin-top="0"
     fit-margin-left="0"
     fit-margin-right="0"
     fit-margin-bottom="0"
     inkscape:window-width="1080"
     inkscape:window-height="1080"
     inkscape:window-x="1184"
     inkscape:window-y="464"
     inkscape:window-maximized="0" />
  <metadata
     id="metadata5">
    <rdf:RDF>
      <cc:Work
         rdf:about="">
        <dc:format>image/svg+xml</dc:format>
        <dc:type
           rdf:resource="http://purl.org/dc/dcmitype/StillImage" />
        <dc:title />
      </cc:Work>
    </rdf:RDF>
  </metadata>
  <g
     inkscape:label="Layer 1"
     inkscape:groupmode="layer"
     id="layer1"
     transform="translate(-425.29611,-3.4222728)">
    <path
       d="m 434.28332,13.604053 v 0.430949 c 0,0.25859 -0.1724,0.43097 -0.43097,0.43097 h -5.17156 c -0.25859,0 -0.43097,-0.17238 -0.43097,-0.43097 v -0.430949 c 0,-0.25858 0.17238,-0.430971 0.43097,-0.430971 h 0.43097 v -0.430959 c 0,-0.258581 0.1724,-0.43097 0.43097,-0.43097 h 1.29288 V 6.1483927 c -0.0861,-0.043 -0.17238,-0.0863 -0.21547,-0.17238 l -2.84437,0.56025 1.37908,2.75817 h -0.94811 l -0.81883,-1.63767 -0.81885,1.6376599 h -0.94811 l 1.2929,-2.5857799 c -0.17238,0 -0.34479,-0.12928 -0.38786,-0.34477 -0.0431,-0.21548 0.0861,-0.47407 0.34476,-0.51715 l 3.577,-0.73263 c 0.12944,-0.34479 0.43096,-0.60336 0.81881,-0.60336 0.25859,0 0.47406,0.12928 0.64647,0.30167 l 3.57698,-0.73262 c 0.21548,-0.0431 0.47406,0.0862 0.51716,0.34475 0.0432,0.21549 -0.0861,0.47404 -0.34478,0.51716 h -0.0431 l 1.29287,2.58579 h -0.94811 l -0.81883,-1.63768 -0.81883,1.63768 h -0.94813 l 1.2067,-2.37031 -2.49957,0.51715 c -0.0861,0.21548 -0.21548,0.34476 -0.38788,0.47407 v 6.1627603 h 1.29287 c 0.25861,0 0.43099,0.172389 0.43099,0.43097 v 0.430959 h 0.43097 c 0.25857,0 0.43095,0.172391 0.43096,0.430971 z m 2.80126,-5.1715603 h -3.83556 c -0.12945,0 -0.2155,0.1292799 -0.2155,0.2585601 0.12944,1.0774198 1.03431,1.8962602 2.15482,1.8962602 1.12052,0 2.02551,-0.8188404 2.15482,-1.8962602 -0.0432,-0.1292701 -0.12945,-0.2585601 -0.25858,-0.2585601 z m -7.54185,1.9824203 c 0,-0.12928 -0.0861,-0.25858 -0.21549,-0.25858 h -3.83557 c -0.12944,0 -0.21548,0.12929 -0.21548,0.25858 0.12945,1.077419 1.0343,1.89624 2.15482,1.89624 1.1205,0 1.98241,-0.818821 2.11172,-1.89624 z"
       id="identity-mod-ruling"
       style="stroke-width:0.475165;font-variation-settings:normal;opacity:1;vector-effect:none;fill:#0b6a0b;fill-opacity:1;stroke-linecap:butt;stroke-linejoin:miter;stroke-miterlimit:4;stroke-dasharray:none;stroke-dashoffset:0;stroke-opacity:1;stop-color:#000000;stop-opacity:1" />
  </g>
</svg>
