<?xml version="1.0" encoding="UTF-8" standalone="no"?>
<svg
   xmlns:dc="http://purl.org/dc/elements/1.1/"
   xmlns:cc="http://creativecommons.org/ns#"
   xmlns:rdf="http://www.w3.org/1999/02/22-rdf-syntax-ns#"
   xmlns:svg="http://www.w3.org/2000/svg"
   xmlns="http://www.w3.org/2000/svg"
   xmlns:sodipodi="http://sodipodi.sourceforge.net/DTD/sodipodi-0.dtd"
   xmlns:inkscape="http://www.inkscape.org/namespaces/inkscape"
   inkscape:export-ydpi="25.4"
   inkscape:export-xdpi="25.4"
   inkscape:export-filename="C:\Users\kesta\Desktop\identity\shield2.png"
   width="12mm"
   height="12mm"
   viewBox="0 0 12 12"
   version="1.1"
   id="svg8"
   sodipodi:docname="shield2.svg"
   inkscape:version="1.0 (4035a4fb49, 2020-05-01)">
  <defs
     id="defs2" />
  <sodipodi:namedview
     id="base"
     pagecolor="#ffffff"
     bordercolor="#666666"
     borderopacity="1.0"
     inkscape:pageopacity="0.0"
     inkscape:pageshadow="2"
     inkscape:zoom="7.9195959"
     inkscape:cx="16.784207"
     inkscape:cy="29.962489"
     inkscape:document-units="mm"
     inkscape:current-layer="layer1"
     inkscape:document-rotation="0"
     showgrid="false"
     fit-margin-top="0"
     fit-margin-left="0"
     fit-margin-right="0"
     fit-margin-bottom="0"
     inkscape:window-width="1080"
     inkscape:window-height="1080"
     inkscape:window-x="1184"
     inkscape:window-y="464"
     inkscape:window-maximized="0" />
  <metadata
     id="metadata5">
    <rdf:RDF>
      <cc:Work
         rdf:about="">
        <dc:format>image/svg+xml</dc:format>
        <dc:type
           rdf:resource="http://purl.org/dc/dcmitype/StillImage" />
        <dc:title />
      </cc:Work>
    </rdf:RDF>
  </metadata>
  <g
     inkscape:label="Layer 1"
     inkscape:groupmode="layer"
     id="layer1"
     transform="translate(-425.29611,-3.4222728)">
    <path
       style="stroke-width:0.475165;font-variation-settings:normal;opacity:1;vector-effect:none;fill:#0b6a0b;fill-opacity:1;stroke-linecap:butt;stroke-linejoin:miter;stroke-miterlimit:4;stroke-dasharray:none;stroke-dashoffset:0;stroke-opacity:1;stop-color:#000000;stop-opacity:1"
       id="identity-2"
       d="m 435.8203,4.3457784 c -0.42732,-0.189913 -2.08913,-0.90213 -4.51063,-0.90213 -2.4215,0 -4.08331,0.664733 -4.51063,0.90213 -0.42733,0.189936 -0.71221,0.61725 -0.71221,1.092047 v 3.5135511 c 0,3.7034675 4.70055,6.2199265 4.89047,6.3148915 0.095,0.04755 0.23741,0.09494 0.33237,0.09494 0.095,0 0.2374,-0.04755 0.33236,-0.09494 0.18992,-0.09494 4.89048,-2.611424 4.89048,-6.3148915 V 5.4378254 c 0,-0.522281 -0.28488,-0.902111 -0.71221,-1.092047 z m -0.7122,4.5581151 c 0,2.1366245 -2.23158,3.8459175 -3.56103,4.7005645 l -0.2374,0.14248 -0.2374,-0.14248 c -1.04457,-0.66473 -3.51355,-2.516457 -3.51355,-4.7005645 V 5.5327914 l 0.33236,-0.09494 c 0.71221,-0.237399 1.89922,-0.569763 3.46607,-0.569763 1.66181,0 2.8963,0.332364 3.46606,0.569763 l 0.33237,0.09494 v 3.3711021 z" />
  </g>
</svg>
