<?xml version="1.0" encoding="UTF-8" standalone="no"?>
<svg
   xmlns:dc="http://purl.org/dc/elements/1.1/"
   xmlns:cc="http://creativecommons.org/ns#"
   xmlns:rdf="http://www.w3.org/1999/02/22-rdf-syntax-ns#"
   xmlns:svg="http://www.w3.org/2000/svg"
   xmlns="http://www.w3.org/2000/svg"
   xmlns:sodipodi="http://sodipodi.sourceforge.net/DTD/sodipodi-0.dtd"
   xmlns:inkscape="http://www.inkscape.org/namespaces/inkscape"
   inkscape:export-ydpi="25.4"
   inkscape:export-xdpi="25.4"
   inkscape:export-filename="C:\Users\kesta\Desktop\identity\shield4.png"
   width="12mm"
   height="12mm"
   viewBox="0 0 12 12"
   version="1.1"
   id="svg8"
   sodipodi:docname="shield4.svg"
   inkscape:version="1.0 (4035a4fb49, 2020-05-01)">
  <defs
     id="defs2" />
  <sodipodi:namedview
     id="base"
     pagecolor="#ffffff"
     bordercolor="#666666"
     borderopacity="1.0"
     inkscape:pageopacity="0.0"
     inkscape:pageshadow="2"
     inkscape:zoom="3.959798"
     inkscape:cx="15.390049"
     inkscape:cy="69.226926"
     inkscape:document-units="mm"
     inkscape:current-layer="layer1"
     inkscape:document-rotation="0"
     showgrid="false"
     fit-margin-top="0"
     fit-margin-left="0"
     fit-margin-right="0"
     fit-margin-bottom="0"
     inkscape:window-width="1080"
     inkscape:window-height="1080"
     inkscape:window-x="1184"
     inkscape:window-y="464"
     inkscape:window-maximized="0" />
  <metadata
     id="metadata5">
    <rdf:RDF>
      <cc:Work
         rdf:about="">
        <dc:format>image/svg+xml</dc:format>
        <dc:type
           rdf:resource="http://purl.org/dc/dcmitype/StillImage" />
        <dc:title />
      </cc:Work>
    </rdf:RDF>
  </metadata>
  <g
     inkscape:label="Layer 1"
     inkscape:groupmode="layer"
     id="layer1"
     transform="translate(-425.29611,-3.4222728)">
    <path
       d="m 435.87113,4.4146659 c -0.42581,-0.189243 -2.08173,-0.898933 -4.49464,-0.898933 -2.41292,0 -4.06884,0.662374 -4.49465,0.898933 -0.42581,0.189261 -0.70968,0.615061 -0.70968,1.088176 V 9.00394 c 0,3.690341 4.68389,6.19788 4.87314,6.292509 0.0946,0.04739 0.23656,0.09458 0.33119,0.09458 0.0946,0 0.23656,-0.04739 0.33118,-0.09458 0.18925,-0.09459 4.87315,-2.602168 4.87315,-6.292509 V 5.5028419 c 0,-0.52043 -0.28388,-0.898915 -0.70969,-1.088176 z m -4.49464,9.4151071 V 9.1931809 h -3.78497 c 0,-0.09459 0,-0.14198 0,-0.2365579 V 5.5974709 c 0.47312,-0.189243 1.84517,-0.662374 3.78497,-0.662374 v 4.258084 h 3.78496 c -0.18924,2.2236831 -2.83872,4.0688461 -3.78496,4.6365921 z"
       id="identity-4"
       style="stroke-width:0.475165;font-variation-settings:normal;opacity:1;vector-effect:none;fill:#0b6a0b;fill-opacity:1;stroke-linecap:butt;stroke-linejoin:miter;stroke-miterlimit:4;stroke-dasharray:none;stroke-dashoffset:0;stroke-opacity:1;stop-color:#000000;stop-opacity:1" />
  </g>
</svg>
