<?xml version="1.0" encoding="UTF-8" standalone="no"?>
<svg
   xmlns:dc="http://purl.org/dc/elements/1.1/"
   xmlns:cc="http://creativecommons.org/ns#"
   xmlns:rdf="http://www.w3.org/1999/02/22-rdf-syntax-ns#"
   xmlns:svg="http://www.w3.org/2000/svg"
   xmlns="http://www.w3.org/2000/svg"
   xmlns:sodipodi="http://sodipodi.sourceforge.net/DTD/sodipodi-0.dtd"
   xmlns:inkscape="http://www.inkscape.org/namespaces/inkscape"
   inkscape:export-ydpi="25.4"
   inkscape:export-xdpi="25.4"
   inkscape:export-filename="C:\Users\kesta\Desktop\identity\shield5.png"
   width="12mm"
   height="12mm"
   viewBox="0 0 12 12"
   version="1.1"
   id="svg8"
   sodipodi:docname="shield5.svg"
   inkscape:version="1.0 (4035a4fb49, 2020-05-01)">
  <defs
     id="defs2" />
  <sodipodi:namedview
     id="base"
     pagecolor="#ffffff"
     bordercolor="#666666"
     borderopacity="1.0"
     inkscape:pageopacity="0.0"
     inkscape:pageshadow="2"
     inkscape:zoom="7.9195959"
     inkscape:cx="28.089524"
     inkscape:cy="37.0113"
     inkscape:document-units="mm"
     inkscape:current-layer="layer1"
     inkscape:document-rotation="0"
     showgrid="false"
     fit-margin-top="0"
     fit-margin-left="0"
     fit-margin-right="0"
     fit-margin-bottom="0"
     inkscape:window-width="1080"
     inkscape:window-height="1080"
     inkscape:window-x="1184"
     inkscape:window-y="464"
     inkscape:window-maximized="0" />
  <metadata
     id="metadata5">
    <rdf:RDF>
      <cc:Work
         rdf:about="">
        <dc:format>image/svg+xml</dc:format>
        <dc:type
           rdf:resource="http://purl.org/dc/dcmitype/StillImage" />
        <dc:title />
      </cc:Work>
    </rdf:RDF>
  </metadata>
  <g
     inkscape:label="Layer 1"
     inkscape:groupmode="layer"
     id="layer1"
     transform="translate(-425.29611,-3.4222728)">
    <path
       style="stroke-width:0.475165;font-variation-settings:normal;opacity:1;vector-effect:none;fill:#0b6a0b;fill-opacity:1;stroke-linecap:butt;stroke-linejoin:miter;stroke-miterlimit:4;stroke-dasharray:none;stroke-dashoffset:0;stroke-opacity:1;stop-color:#000000;stop-opacity:1"
       id="identity-6-solid-info"
       d="m 435.80431,4.4305308 c -0.4258,-0.189243 -2.08173,-0.898933 -4.49464,-0.898933 -2.41292,0 -4.06884,0.662374 -4.49465,0.898933 -0.42581,0.189261 -0.70968,0.615061 -0.70968,1.088176 v 3.5010981 c 0,3.6903411 4.68389,6.1978801 4.87313,6.2925091 0.0947,0.04739 0.23656,0.09458 0.3312,0.09458 0.0947,0 0.23656,-0.04739 0.33118,-0.09458 0.18925,-0.09459 4.87314,-2.602168 4.87314,-6.2925091 V 5.5187068 c 0,-0.52043 -0.28387,-0.898915 -0.70968,-1.088176 z m -0.70968,4.5419571 c 0,2.1290531 -2.22367,3.8322891 -3.5484,4.6839071 l -0.23656,0.14198 -0.23655,-0.14198 c -1.04087,-0.662374 -3.5011,-2.507538 -3.5011,-4.6839071 V 5.6133358 l 0.33118,-0.09458 c 0.70968,-0.236558 1.89249,-0.567745 3.45377,-0.567745 1.65592,0 2.88603,0.331187 3.45379,0.567745 l 0.33118,0.09458 v 3.3591521 z m -0.80431,-0.8043011 -0.8516,0.6150621 -0.80432,0.5677429 0.28387,0.9462482 0.33119,0.993543 c 0.0474,0.189244 -0.14191,0.331188 -0.33119,0.236559 l -0.85161,-0.61506 -0.8043,-0.567745 -0.80431,0.567745 -0.85162,0.61506 c -0.14192,0.09459 -0.37849,-0.04739 -0.33119,-0.236559 l 0.33119,-0.993543 0.28388,-0.9462482 -0.80431,-0.5677429 -0.85161,-0.6150621 c -0.14193,-0.09459 -0.0946,-0.378501 0.14193,-0.378501 h 2.03443 l 0.28386,-0.9462291 0.33119,-0.9935639 c 0.0474,-0.189242 0.33117,-0.189242 0.37848,0 l 0.3312,0.9935639 0.28388,0.9462291 h 2.03441 c 0.33118,0 0.3785,0.236574 0.23655,0.378501 z" />
  </g>
</svg>
