<?xml version="1.0" encoding="UTF-8"?>
<svg width="12" height="12" xmlns="http://www.w3.org/2000/svg">
    <g transform="matrix(1.1883 0 0 1.0481 .87505 -.31311)">
        <g transform="matrix(.64023 0 0 .64023 -2.9151 4.8495)">
            <path d="m3.6536 5.5291c-0.78632-0.66851 0.46385-1.8959 1.1951-2.0415 0.53765-0.10706 0.75897-0.13755 1.4445 0.59821 0.9586 1.0288 1.49 1.5991 2.2803 2.7801 2.2042-4.8488 3.6431-7.8694 6.2855-11.484 1.6644-2.2769 3.9678-3.1989 4.3103-1.8882 0.12725 0.48705-1.4759 1.913-2.4885 3.2711-1.6519 2.2158-4.21 7.1011-6.4051 13.102-0.095817 0.26193-0.45625 0.83464-1.5421 0.90617-0.41783 0.027524-1.0017-0.19561-1.2623-0.65698-1.0327-1.8037-2.252-3.2554-3.8177-4.5865z" fill="#fff" stroke-width="0"/>
        </g>
    </g>
</svg>
