<?xml version="1.0" encoding="UTF-8"?>
<svg width="12" height="12" xmlns="http://www.w3.org/2000/svg">
    <g transform="matrix(1.1883 0 0 1.0481 .87505 -.31311)">
        <g transform="matrix(.64023 0 0 .64023 -2.9151 4.8495)">
            <path d="m3.7752 5.5466c-0.78009-0.66628-0.37488-1.8374 1.6033-2.2331 0.48871-0.097764 0.68988-0.12561 1.313 0.54627 0.87134 0.93949 1.2392 1.4595 2.0715 2.5375 2.0026-4.4258 3.3525-7.1435 5.7108-10.482 2.197-3.1105 4.3543-3.6699 4.6941-2.3637 0.12624 0.48542-1.1816 1.9066-2.1861 3.2602-1.6388 2.2084-4.1766 7.0775-6.3543 13.058-0.09506 0.26106-0.73527 0.83186-1.8125 0.90315-0.41451 0.027432-0.99376-0.19496-1.2523-0.65479-1.0245-1.7977-2.2342-3.2445-3.7875-4.5712z" fill="#a8a8a8"/>
        </g>
    </g>
</svg>
