<svg width="50" height="50" viewBox="0 0 50 50" fill="none" xmlns="http://www.w3.org/2000/svg">
<circle cx="25" cy="25" r="25" fill="black"/>
<path d="M31.9301 23.76L28.4001 20.48L24.8601 17.21C21.9901 18.4 18.9001 18.94 15.8001 18.8C16.4501 25.4 13.0401 33.9 11.8401 36.65C11.7701 36.82 11.9901 36.95 12.1101 36.82L23.2401 24.77C23.3201 24.69 23.4101 24.62 23.5201 24.58C23.6201 24.54 23.7401 24.51 23.8501 24.51C23.9601 24.51 24.0801 24.53 24.1801 24.58C24.2801 24.62 24.3801 24.69 24.4601 24.77C24.6201 24.93 24.7101 25.15 24.7101 25.38C24.7101 25.61 24.6201 25.83 24.4601 25.99L13.3301 38.04C13.2101 38.17 13.3601 38.38 13.5201 38.3C16.1701 36.88 24.3701 32.81 31.0301 32.91C30.6501 29.83 30.9601 26.71 31.9401 23.76H31.9301Z" fill="white"/>
<path d="M34.33 3L28.91 9.73L27.49 11.26C26.93 11.87 26.96 12.81 27.57 13.37L27.74 13.52L26.02 16.63L32.58 22.76L35.56 20.82L35.69 20.94C36.29 21.5 37.24 21.46 37.8 20.86L40.22 18.24L45.68 13.41C43.17 8.8 39.17 5.12 34.34 3H34.33Z" fill="white"/>
</svg>
