<svg fill="none" viewBox="0 0 25 32">
  <g fill="currentColor">
    <path d="m18.87.574-3.42 3.281L12.038 0l-3.42 3.855L5.198.574S-2.82 14.489 11.981 17h.103C26.867 14.49 18.87.574 18.87.574zM24.016 19.526c.3-.987-4.167-.329-4.75-.078-1.249.528-3.585 1.731-4.055 4.561s.154 3.376-.077 3.68c-.231.302 2.832.44 3.961.155a5.78 5.78 0 0 0 2.266-1.07 5.859 5.859 0 0 0 1.61-1.934c1.301-2.155.762-4.38 1.045-5.314zM.044 19.526c-.3-.987 4.168-.329 4.75-.078 1.249.528 3.585 1.731 4.055 4.561s-.154 3.376.077 3.68c.231.302-2.832.44-3.961.155a5.781 5.781 0 0 1-2.266-1.07 5.86 5.86 0 0 1-1.61-1.934C-.17 22.685.326 20.46.043 19.526z" />
  </g>
  <path
    d="M12.125 9.187V31"
    stroke="currentColor"
    strokeLinecap="round"
    strokeLinejoin="round"
    strokeWidth="2"
  />
</svg>