<svg width="64" height="66" viewBox="0 0 64 66" fill="none" xmlns="http://www.w3.org/2000/svg">
<circle cx="30" cy="36" r="30" fill="black"/>
<path d="M25.0919 30.4057L26.1512 27.9341C26.8528 26.297 27.8603 24.8089 29.1197 23.5495L46.6587 6.01049C49.5876 3.08155 54.3364 3.08155 57.2653 6.01049C60.1942 8.93942 60.1942 13.6882 57.2653 16.6171L39.7263 34.1561C38.4669 35.4155 36.9788 36.423 35.3417 37.1246L32.8701 38.1838L25.0919 30.4057Z" fill="white"/>
<path d="M17.3137 33.9412L25.0919 31.8199L31.4558 38.1838L29.3345 45.962L12.7175 51.9724L23.3241 41.3658C23.7146 40.9753 23.7146 40.3421 23.3241 39.9516C22.9336 39.5611 22.3004 39.5611 21.9099 39.9516L11.3033 50.5582L17.3137 33.9412Z" fill="white"/>
</svg>
