<svg fill="none" viewBox="0 0 27 27">
  <path
    d="M19.31 21.29c.12-.62 3.78-3.38 6.94-5.83l-1.18-.38a.85.85 0 0 1-.56-1l1.16-4.18-3.18.87a1 1 0 0 1-1.26-.84l-.15-1.27-3.27 3.15a.38.38 0 0 1-.64-.35l1.31-7-1.84 1a.59.59 0 0 1-.81-.25L13.14 0l-2.68 5.21a.6.6 0 0 1-.82.25l-1.84-1 1.31 7a.38.38 0 0 1-.64.35L5.21 8.66 5.06 9.9a1 1 0 0 1-1.27.84L.58 9.87l1.16 4.18a.85.85 0 0 1-.56 1L0 15.43c3.16 2.45 6.82 5.21 6.94 5.83s-1 2.35-1 2.35a38.53 38.53 0 0 1 5.38-1.41c.94 0 1.17.85 1.17 1.7s-.55 6.45-.27 6.65a2.65 2.65 0 0 0 1.78 0c.22-.2-.27-5.8-.27-6.65s.23-1.68 1.17-1.7c1.825.34 3.623.811 5.38 1.41 0 0-1.11-1.59-.97-2.32z"
    fill="currentColor"
  />
</svg>