<svg width="50" height="50" viewBox="0 0 50 50" fill="none" xmlns="http://www.w3.org/2000/svg">
<circle cx="25" cy="25" r="25" fill="black"/>
<path d="M30.9732 31.1887C31.0973 30.5425 34.883 27.666 38.1515 25.1126L36.931 24.7166C36.7228 24.6469 36.548 24.5014 36.4408 24.3086C36.3337 24.1158 36.3019 23.8896 36.3518 23.6743L37.5516 19.3179L34.2624 20.2246C34.1192 20.2647 33.969 20.2732 33.8223 20.2496C33.6755 20.2259 33.5355 20.1707 33.4118 20.0876C33.2881 20.0045 33.1836 19.8956 33.1055 19.7681C33.0274 19.6407 32.9775 19.4978 32.9591 19.3492L32.804 18.0256L29.4217 21.3085C29.3616 21.3691 29.2836 21.4084 29.1995 21.4206C29.1154 21.4328 29.0296 21.4172 28.955 21.3761C28.8804 21.335 28.8211 21.2706 28.7859 21.1927C28.7507 21.1148 28.7415 21.0274 28.7597 20.9438L30.1147 13.6483L28.2115 14.6905C28.1398 14.7301 28.0609 14.7549 27.9795 14.7632C27.8982 14.7716 27.8159 14.7633 27.7378 14.739C27.6596 14.7147 27.5871 14.6748 27.5246 14.6217C27.462 14.5686 27.4107 14.5034 27.3737 14.4299L24.5913 9L21.8192 14.4299C21.7812 14.5038 21.7289 14.5692 21.6654 14.6224C21.6019 14.6756 21.5285 14.7155 21.4495 14.7398C21.3705 14.7641 21.2875 14.7722 21.2053 14.7637C21.1232 14.7553 21.0435 14.7304 20.9711 14.6905L19.0679 13.6483L20.4229 20.9438C20.4411 21.0274 20.4319 21.1148 20.3967 21.1927C20.3615 21.2706 20.3021 21.335 20.2275 21.3761C20.153 21.4172 20.0672 21.4328 19.983 21.4206C19.8989 21.4084 19.821 21.3691 19.7609 21.3085L16.3889 18.0256L16.2338 19.3179C16.2157 19.4677 16.1655 19.6118 16.0868 19.7401C16.008 19.8685 15.9025 19.978 15.7776 20.0613C15.6527 20.1445 15.5113 20.1995 15.3633 20.2223C15.2152 20.2451 15.0641 20.2352 14.9202 20.1934L11.5999 19.2866L12.7998 23.6431C12.8496 23.8583 12.8179 24.0845 12.7107 24.2773C12.6035 24.4702 12.4287 24.6157 12.2205 24.6853L11 25.0813C14.2685 27.6348 18.0542 30.5113 18.1783 31.1574C18.3025 31.8036 17.144 33.6066 17.144 33.6066C18.9614 32.9824 20.8211 32.4912 22.7088 32.1371C23.6811 32.1371 23.919 33.023 23.919 33.9089C23.919 34.7947 23.3501 40.6311 23.6397 40.8396C24.235 41.0535 24.8855 41.0535 25.4808 40.8396C25.7084 40.6311 25.2015 34.7947 25.2015 33.9089C25.2015 33.023 25.4394 32.1579 26.4117 32.1371C28.2994 32.4912 30.1591 32.9824 31.9765 33.6066C31.9765 33.6066 30.8284 31.9495 30.9732 31.1887Z" fill="white"/>
</svg>
