<svg fill="none" height="24" viewBox="0 0 25 24" width="25" xmlns="http://www.w3.org/2000/svg"><g fill="#fff"><path d="m23.1209 8.14685h-4.2935c-.8808 0-1.6514.77064-1.6514 1.65137v4.29358c0 .8807.7706 1.6513 1.6514 1.6513h4.2935c.8808 0 1.6514-.7706 1.6514-1.6513v-4.29358c0-.88073-.7706-1.65137-1.6514-1.65137zm-.2202 4.07335-1.211 1.211c-.1101.1101-.1101.1101-.2201.1101-.1101 0-.2202 0-.2202-.1101-.1101-.1101-.1101-.3302 0-.4403l.6605-.6606h-2.6422c-.2202 0-.3302-.1101-.3302-.3303 0-.2201.11-.3302.3302-.3302h2.5321l-.5504-.6606c-.1101-.1101-.1101-.3302 0-.4403s.3302-.1101.4403 0l1.211 1.211c.1101.1101.1101.2201 0 .4403z"/><path d="m6.71802 8.14685h-4.18347c-.88073 0-1.651371.77064-1.651371 1.65137v4.29358c0 .8807.770641 1.6513 1.651371 1.6513h4.29356c.88073 0 1.65137-.7706 1.65137-1.6513v-4.29358c-.11009-.88073-.77064-1.65137-1.76146-1.65137zm-.33028 4.07335h-2.64219l.66055.6606c.11009.1101.11009.3302 0 .4403s-.11009.1101-.22018.1101-.22019 0-.22019-.1101l-1.211-1.211c-.11009-.1101-.11009-.3302 0-.4403l1.211-1.211c.1101-.1101.33028-.1101.44037 0s.11009.3302 0 .4403l-.66055.6606h2.64219c.22019 0 .33028.1101.33028.3303 0 .2201-.22019.3302-.33028.3302z"/><path d="m14.9754 16.4037h-4.2935c-.88074 0-1.65138.7706-1.65138 1.6514v4.2935c0 .8807.77064 1.6514 1.65138 1.6514h4.2935c.8808 0 1.6514-.7707 1.6514-1.6514v-4.2935c0-.9909-.7706-1.6514-1.6514-1.6514zm-.6605 4.4036-1.211 1.211c-.1101.1101-.3303.1101-.4404 0l-1.211-1.211c-.1101-.1101-.1101-.1101-.1101-.2201 0-.1101 0-.2202.1101-.2202.1101-.1101.3303-.1101.4404 0l.6605.6605v-2.6422c0-.2202.1101-.3302.3303-.3302s.3303.11.3303.3302v2.5321l.6605-.6605c.1101-.1101.3303-.1101.4404 0 .1101.2202.1101.4403 0 .5504z"/><path d="m14.9754 0h-4.2935c-.88074 0-1.65138.770639-1.65138 1.65137v4.29356c0 .88073.77064 1.65137 1.65138 1.65137h4.2935c.8808 0 1.6514-.77064 1.6514-1.65137v-4.29356c0-.880731-.7706-1.65137-1.6514-1.65137zm-.6605 3.52292c-.1101.11009-.3303.11009-.4404 0l-.6605-.66055v2.5321c0 .22019-.1101.33028-.3303.33028s-.3303-.11009-.3303-.33028v-2.5321l-.6605.66055c-.1101.11009-.3303.11009-.4404 0s-.1101-.33027 0-.44036l1.211-1.21101c.1101-.11009.3303-.11009.4404 0l1.211 1.21101c.1101.11009.1101.11009.1101.22018s-.1101.22018-.1101.22018z"/></g></svg>