<svg width="50" height="50" viewBox="0 0 50 50" fill="none" xmlns="http://www.w3.org/2000/svg">
<path d="M32.9771 7H17.0229C13.157 7 10.0229 10.134 10.0229 14V31.7292C10.0229 34.4426 11.591 36.9115 14.047 38.0651L22.0241 41.8119C23.9093 42.6973 26.0908 42.6973 27.976 41.8119L35.9531 38.0651C38.409 36.9115 39.9771 34.4426 39.9771 31.7292V14C39.9771 10.134 36.8431 7 32.9771 7Z" fill="white" stroke="#BB0000" stroke-width="4"/>
<line x1="13.2934" y1="37.2929" x2="39.2934" y2="11.2929" stroke="#BB0000" stroke-opacity="0.5" stroke-width="2"/>
<path d="M26.1722 6.99991L10.5005 22.6716" stroke="#BB0000" stroke-opacity="0.5" stroke-width="2"/>
<path d="M40.0004 26.0001L24.0005 42" stroke="#BB0000" stroke-opacity="0.5" stroke-width="2"/>
<path d="M34.065 20.9632H27.5802L25.0242 14L22.5628 20.9632H16.0306L21.5687 24.9895L19.486 32L25.0478 27.9737L30.5859 32L28.5506 25.0132L34.065 20.9632Z" fill="#E136EA"/>
</svg>
