<svg width="45" height="43" viewBox="0 0 45 43" fill="none" xmlns="http://www.w3.org/2000/svg">
<path d="M19.0284 35.4575L15.2659 38.8288L15.5645 33.8722L2.74334 39.7398L12.3167 27.4076L8.89397 25.3746L11.8792 23.5062L0 12.4351L14.6998 17.3505L13.8505 2.21835L19.5997 11.9255L20.8092 5.95505L24.1959 14.6998L39.2302 0L29.6878 18.4828L33.0796 18.699L31.2885 20.8401L45 24.3658L31.8752 27.5157L34.9685 30.5164H30.4392L35.8847 39.5288L24.9422 33.9855L19.996 42.1074L19.0284 35.4575Z" fill="#684C41"/>
<path d="M20.397 31.6749L17.4426 34.3256L17.6537 30.8205L9.00161 34.7837L15.1419 26.8728L12.5479 25.3338L14.9927 23.8052L7.70972 17.0163L16.7581 20.0427L16.1868 9.89803L20.4794 17.145L21.3801 12.7031L23.4646 18.0766L32.1373 9.59436L26.6609 20.1971L29.2086 20.3567L27.8962 21.9317L37.1144 24.3044L28.0712 26.4713L30.2792 28.6176H27.0675L30.8196 34.83L24.2367 31.4947L21.1176 36.6108L20.397 31.6749Z" fill="#F1906E"/>
<path d="M13.4741 31.2426L19.1461 28.6434L18.9969 31.1088L21.3799 28.9728L21.9203 32.6837L23.7269 29.7139L27.2063 31.4794L24.6534 27.2588H26.9283L25.3534 25.725L31.4783 24.2581L25.4718 22.7141L26.4497 21.5457L24.499 21.4222L27.0673 16.4502L22.9394 20.4854L21.7917 17.5156L21.1071 20.8766L17.8542 15.3848L18.2248 21.9677L13.2168 20.295L17.2109 24.0162L15.1572 25.303L17.1594 26.4919L13.4741 31.2426Z" fill="#FEF189"/>
</svg>
