<svg width="50" height="50" viewBox="0 0 50 50" fill="none" xmlns="http://www.w3.org/2000/svg">
<path d="M29.495 41.4176C29.0168 41.7537 28.581 42.1464 28.1972 42.5873C27.8183 43.0345 27.3456 43.3929 26.8127 43.637C26.2793 43.8813 25.6986 44.0052 25.112 43.9998C25.1099 43.9998 25.1077 43.9998 25.1056 43.9998L25.1163 42.9998C24.6725 43.0009 24.234 42.9034 23.8324 42.7143C23.4309 42.5252 23.0764 42.2492 22.7945 41.9063L29.495 41.4176ZM29.495 41.4176C29.6819 41.2971 29.882 41.1867 30.1311 41.0495C30.2243 40.9981 30.3244 40.943 30.4332 40.8821C32.0513 40.0231 33.5791 39.0041 34.9938 37.8403L35.0024 37.8333L35.0108 37.8261C35.5099 37.3966 35.9753 36.9833 36.4133 36.5798C36.6273 36.6149 36.8442 36.6318 37.0618 36.63C37.8589 36.6255 38.6365 36.3827 39.2946 35.9328C40.1767 35.3367 41.933 33.6384 42.97 29.349L42.97 29.3491L42.9718 29.3412C43.6454 26.4527 43.4558 23.4299 42.4265 20.6483L42.4205 20.6321L42.414 20.6161C42.1237 19.9078 41.6362 19.2978 41.0092 18.8586C40.3823 18.4194 39.6425 18.1695 38.8776 18.1387L38.8575 18.1379H38.8373H38.7175C38.2214 18.1379 37.3523 17.6336 36.9225 16.1358L36.9226 16.1358L36.9201 16.1276L36.5606 14.9142L36.5598 14.9114C36.2838 13.99 35.7164 13.183 34.9427 12.6115C34.1817 12.0492 33.2615 11.7448 32.3161 11.7417C32.2732 11.7384 32.2301 11.7356 32.1871 11.7334C31.8899 10.2813 31.1478 8.94841 30.0525 7.92689C28.7248 6.68861 26.9768 6 25.1613 6C23.3457 6 21.5977 6.68861 20.27 7.92689C19.1747 8.94841 18.4327 10.2813 18.1355 11.7334C18.091 11.7357 18.0465 11.7385 18.0021 11.742C17.0619 11.7523 16.1487 12.0606 15.3943 12.623C14.6284 13.1939 14.0668 13.9963 13.7927 14.9114L13.7919 14.9142L13.4324 16.1276L13.4323 16.1275L13.43 16.1358C13.0002 17.6336 12.1311 18.1379 11.635 18.1379H11.4852H11.4574L11.4296 18.1394C10.6752 18.1814 9.94815 18.4365 9.33284 18.875C8.71752 19.3135 8.23914 19.9175 7.95319 20.6168L7.94681 20.6325L7.94096 20.6483C6.91165 23.4299 6.72203 26.4527 7.39565 29.3412L7.39562 29.3412L7.39752 29.349C8.43567 33.6432 10.1947 35.3405 11.0759 35.9348L11.0879 35.943L11.1002 35.9507C11.7436 36.3579 12.4898 36.5728 13.2511 36.5701M29.495 41.4176L22.0273 42.5478C21.6527 42.1066 21.2206 41.7175 20.7428 41.3909C20.5544 41.2691 20.3529 41.158 20.1015 41.0195C20.0066 40.9672 19.9046 40.911 19.7935 40.8488C18.1989 39.9749 16.6952 38.9445 15.3047 37.7728L15.2967 37.7662L15.2968 37.7661C14.7976 37.3366 14.3322 36.9234 13.8942 36.5198C13.6821 36.5547 13.4669 36.5716 13.2511 36.5701M13.2511 36.5701C13.2534 36.5701 13.2557 36.5701 13.258 36.5701L13.2528 35.5701L13.244 36.5701C13.2463 36.5701 13.2487 36.5701 13.2511 36.5701Z" fill="#E136EA" stroke="white" stroke-width="2"/>
<path d="M37.8807 22.2505C37.1592 23.71 36.2115 25.0462 35.0727 26.2097C33.8326 27.1228 32.4529 27.8292 30.9871 28.3016C31.9631 28.8817 33.1286 29.0532 34.2303 28.779C34.2303 28.779 34.9463 28.779 33.6968 29.8039C32.4999 31.0184 31.0663 31.9741 29.4848 32.6119C29.1792 32.6836 28.8622 32.6924 28.553 32.6378C28.2439 32.5833 27.9491 32.4664 27.6865 32.2944C27.4238 32.1224 27.1989 31.8988 27.0254 31.6372C26.8518 31.3756 26.7333 31.0815 26.6769 30.7727C26.4944 30.0426 26.4101 23.9353 26.354 19.948L29.2742 19.0915C29.3281 19.1634 29.403 19.2168 29.4884 19.2444C29.5739 19.2721 29.6658 19.2726 29.7516 19.246C29.8388 19.2183 29.9165 19.1668 29.976 19.0974C30.0356 19.0279 30.0745 18.9432 30.0886 18.8528L30.8467 18.6282C30.9041 18.6997 30.9815 18.7525 31.069 18.78C31.1564 18.8075 31.2501 18.8084 31.3381 18.7826C31.4253 18.7574 31.5029 18.7064 31.5606 18.6362C31.6182 18.566 31.6532 18.48 31.661 18.3895L32.3068 18.193C32.3586 18.1784 32.4069 18.1538 32.4491 18.1204C32.4913 18.0871 32.5264 18.0457 32.5525 17.9988C32.5786 17.9518 32.5952 17.9001 32.6012 17.8467C32.6072 17.7932 32.6026 17.7392 32.5876 17.6875L32.2647 16.5363C32.2502 16.4845 32.2255 16.4362 32.1922 16.394C32.1588 16.3518 32.1175 16.3167 32.0705 16.2906C32.0235 16.2645 31.9718 16.2479 31.9184 16.2419C31.865 16.2359 31.8109 16.2405 31.7593 16.2555L31.1556 16.5363C31.0981 16.4648 31.0208 16.412 30.9333 16.3845C30.8458 16.357 30.7522 16.3561 30.6642 16.3818C30.5779 16.4087 30.5013 16.4603 30.4439 16.5301C30.3866 16.6 30.3509 16.6851 30.3413 16.775L29.5691 16.9996C29.5152 16.9277 29.4404 16.8743 29.3549 16.8467C29.2694 16.819 29.1775 16.8185 29.0917 16.8452C29.0045 16.8704 28.9269 16.9214 28.8693 16.9916C28.8116 17.0618 28.7766 17.1478 28.7688 17.2383L26.3961 17.9262C26.3961 17.3787 26.3961 16.9575 26.3961 16.7328C27.0351 16.4724 27.5639 15.998 27.8918 15.3909C28.2197 14.7837 28.3265 14.0814 28.1938 13.4042C28.0611 12.727 27.6972 12.1169 27.1644 11.6783C26.6316 11.2398 25.963 11 25.2729 11C24.5828 11 23.9142 11.2398 23.3813 11.6783C22.8485 12.1169 22.4847 12.727 22.352 13.4042C22.2193 14.0814 22.3261 14.7837 22.654 15.3909C22.9819 15.998 23.5106 16.4724 24.1497 16.7328V16.7328C24.1497 16.9575 24.1497 17.3787 24.1497 17.9262L21.777 17.2383C21.7692 17.1478 21.7342 17.0618 21.6765 16.9916C21.6189 16.9214 21.5413 16.8704 21.4541 16.8452C21.3683 16.8185 21.2764 16.819 21.1909 16.8467C21.1054 16.8743 21.0306 16.9277 20.9767 16.9996L20.2045 16.775C20.1949 16.6851 20.1592 16.6 20.1018 16.5301C20.0445 16.4603 19.9679 16.4087 19.8816 16.3818C19.7936 16.3561 19.6999 16.357 19.6125 16.3845C19.525 16.412 19.4476 16.4648 19.3902 16.5363L18.7444 16.3397C18.649 16.3006 18.5423 16.2992 18.4459 16.3357C18.3495 16.3721 18.2705 16.4438 18.2249 16.5363L17.8879 17.6595C17.873 17.7111 17.8683 17.7652 17.8744 17.8186C17.8804 17.872 17.8969 17.9237 17.923 17.9707C17.9492 18.0177 17.9843 18.059 18.0265 18.0924C18.0686 18.1257 18.117 18.1503 18.1687 18.1649L18.8146 18.3615C18.8224 18.4519 18.8574 18.5379 18.915 18.6081C18.9727 18.6783 19.0502 18.7294 19.1375 18.7546C19.2255 18.7803 19.3191 18.7794 19.4066 18.7519C19.4941 18.7244 19.5714 18.6716 19.6289 18.6001L20.387 18.8248C20.401 18.9152 20.44 18.9999 20.4995 19.0693C20.5591 19.1388 20.6368 19.1902 20.724 19.2179C20.8098 19.2445 20.9017 19.244 20.9872 19.2164C21.0726 19.1887 21.1474 19.1353 21.2013 19.0634L24.1216 19.9199C24.1216 23.9072 23.9812 30.0145 23.7987 30.7446C23.7423 31.0534 23.6237 31.3475 23.4502 31.6091C23.2766 31.8707 23.0517 32.0943 22.7891 32.2663C22.5265 32.4383 22.2317 32.5552 21.9225 32.6098C21.6134 32.6643 21.2964 32.6555 20.9907 32.5838C19.4093 31.946 17.9757 30.9903 16.7788 29.7758C15.5293 28.7228 16.2453 28.7509 16.2453 28.7509C17.347 29.0252 18.5125 28.8536 19.4885 28.2736C18.0294 27.8084 16.6547 27.1116 15.4169 26.2097C14.2781 25.0462 13.3304 23.71 12.609 22.2505C11.9345 24.1384 11.8175 26.1806 12.272 28.1332C13.0442 31.3202 14.1674 32.0924 14.1674 32.0924C14.1919 31.3301 14.2669 30.5703 14.392 29.818C15.5584 31.4334 16.9482 32.8752 18.5197 34.1001C19.9926 35.2593 21.5667 36.2837 23.2231 37.1608C23.9787 37.6776 24.6591 38.2965 25.2448 39V39C25.8349 38.2955 26.52 37.6765 27.2806 37.1608C28.937 36.2837 30.5111 35.2593 31.9839 34.1001C33.5555 32.8752 34.9452 31.4334 36.1116 29.818C36.2367 30.5703 36.3118 31.3301 36.3363 32.0924C36.3363 32.0924 37.4595 31.3202 38.2317 28.1332C38.6817 26.1792 38.5598 24.137 37.8807 22.2505V22.2505ZM23.5039 13.8968C23.5039 13.6682 23.5489 13.4418 23.6364 13.2306C23.7239 13.0193 23.8521 12.8274 24.0138 12.6658C24.1754 12.5041 24.3674 12.3759 24.5786 12.2884C24.7898 12.2009 25.0162 12.1558 25.2448 12.1558C25.4734 12.1558 25.6998 12.2009 25.911 12.2884C26.1223 12.3759 26.3142 12.5041 26.4758 12.6658C26.6375 12.8274 26.7657 13.0193 26.8532 13.2306C26.9407 13.4418 26.9857 13.6682 26.9857 13.8968C26.9973 14.1639 26.9462 14.43 26.8365 14.6738C26.7268 14.9176 26.5615 15.1323 26.354 15.3008C26.354 14.4865 26.1574 13.8968 25.2729 13.8968C24.3884 13.8968 24.2199 14.4163 24.1918 15.3008C23.974 15.1381 23.7979 14.926 23.6783 14.6818C23.5587 14.4377 23.4989 14.1686 23.5039 13.8968V13.8968Z" fill="white"/>
</svg>
