<svg width="50" height="50" viewBox="0 0 50 50" fill="none" xmlns="http://www.w3.org/2000/svg">
<path d="M37.0583 36.13C37.7564 36.1262 38.4374 35.9135 39.0136 35.5192C39.777 35.0038 41.4713 33.4204 42.484 29.2316L42.4849 29.2276C43.1363 26.4345 42.9529 23.5116 41.9576 20.8218L41.9546 20.8137L41.9513 20.8057C41.6974 20.1861 41.2708 19.6524 40.7224 19.2681C40.1739 18.8839 39.5266 18.6653 38.8575 18.6383L38.8474 18.6379H38.8373H38.7175C37.9077 18.6379 36.904 17.8839 36.4419 16.2737L36.4419 16.2737L36.4407 16.2696L36.0812 15.0563L36.0808 15.0549C35.8358 14.2371 35.3323 13.5208 34.6457 13.0136C33.9653 12.511 33.1416 12.2405 32.2962 12.2416C32.1198 12.2274 31.9427 12.2235 31.766 12.23C31.5517 10.7262 30.8293 9.33508 29.7115 8.29255C28.4763 7.1406 26.8502 6.5 25.1613 6.5C23.4723 6.5 21.8462 7.1406 20.611 8.29255C19.4932 9.33508 18.7709 10.7262 18.5566 12.23C18.3791 12.2234 18.2013 12.2274 18.0242 12.2418C17.1839 12.2475 16.3671 12.5214 15.6931 13.0239C15.0134 13.5306 14.515 14.2427 14.2717 15.0548L14.2713 15.0563L13.9118 16.2696L13.9118 16.2696L13.9106 16.2737C13.4485 17.8839 12.4448 18.6379 11.635 18.6379H11.4852H11.4713L11.4574 18.6386C10.7974 18.6754 10.1613 18.8986 9.62301 19.2822C9.08469 19.6658 8.66617 20.1942 8.416 20.8061L8.41281 20.8139L8.40989 20.8218C7.41456 23.5116 7.23121 26.4345 7.88259 29.2276L7.88257 29.2276L7.88352 29.2316C8.89691 33.4233 10.5928 35.006 11.3554 35.5203L11.3615 35.5244L11.3676 35.5282C11.9311 35.8849 12.5849 36.0729 13.2518 36.0701C13.5198 36.0722 13.7867 36.0416 14.0466 35.9794C14.5335 36.4332 15.0557 36.8991 15.6229 37.3871L15.6229 37.3871L15.6268 37.3905C16.9926 38.5413 18.4695 39.5532 20.0358 40.4114C20.1384 40.4688 20.2357 40.5225 20.3285 40.5736C20.5888 40.717 20.8136 40.8409 21.0197 40.9745C21.5375 41.3278 22.0054 41.749 22.4109 42.227C22.7393 42.6256 23.152 42.9465 23.6194 43.1666C24.0869 43.3868 24.5974 43.5006 25.1142 43.4998M37.0583 36.13C36.7894 36.1323 36.5217 36.1017 36.261 36.0393C35.774 36.4931 35.2518 36.959 34.6847 37.447L34.6763 37.4543L34.6762 37.4542C33.2859 38.5979 31.7843 39.5992 30.194 40.443C30.0924 40.4998 29.9961 40.5529 29.9041 40.6036C29.6449 40.7464 29.4209 40.8698 29.2156 41.0028C28.7002 41.364 28.2308 41.7868 27.8178 42.2617C27.4859 42.654 27.0717 42.9684 26.6044 43.1824C26.1371 43.3965 25.6282 43.5049 25.1142 43.4998M37.0583 36.13C37.058 36.13 37.0577 36.13 37.0574 36.13L37.0548 35.6303L37.0592 36.13C37.0589 36.13 37.0586 36.13 37.0583 36.13ZM25.1142 43.4998C25.1131 43.4998 25.112 43.4998 25.1109 43.4998L25.1163 42.9999L25.1176 43.4998C25.1164 43.4998 25.1153 43.4998 25.1142 43.4998Z" fill="#F5BCF8" stroke="#E136EA"/>
<path d="M37.8807 22.2505C37.1592 23.71 36.2115 25.0462 35.0727 26.2097C33.8326 27.1228 32.4529 27.8292 30.9871 28.3016C31.9631 28.8817 33.1286 29.0532 34.2303 28.779C34.2303 28.779 34.9463 28.779 33.6968 29.8039C32.4999 31.0184 31.0663 31.9741 29.4848 32.6119C29.1792 32.6836 28.8622 32.6924 28.553 32.6378C28.2439 32.5833 27.9491 32.4664 27.6865 32.2944C27.4238 32.1224 27.1989 31.8988 27.0254 31.6372C26.8518 31.3756 26.7333 31.0815 26.6769 30.7727C26.4944 30.0426 26.4101 23.9353 26.354 19.948L29.2742 19.0915C29.3281 19.1634 29.403 19.2168 29.4884 19.2444C29.5739 19.2721 29.6658 19.2726 29.7516 19.246C29.8388 19.2183 29.9165 19.1668 29.976 19.0974C30.0356 19.0279 30.0745 18.9432 30.0886 18.8528L30.8467 18.6282C30.9041 18.6997 30.9815 18.7525 31.069 18.78C31.1564 18.8075 31.2501 18.8084 31.3381 18.7826C31.4253 18.7574 31.5029 18.7064 31.5606 18.6362C31.6182 18.566 31.6532 18.48 31.661 18.3895L32.3068 18.193C32.3586 18.1784 32.4069 18.1538 32.4491 18.1204C32.4913 18.0871 32.5264 18.0457 32.5525 17.9988C32.5786 17.9518 32.5952 17.9001 32.6012 17.8467C32.6072 17.7932 32.6026 17.7392 32.5876 17.6875L32.2647 16.5363C32.2502 16.4845 32.2255 16.4362 32.1922 16.394C32.1588 16.3518 32.1175 16.3167 32.0705 16.2906C32.0235 16.2645 31.9718 16.2479 31.9184 16.2419C31.865 16.2359 31.8109 16.2405 31.7593 16.2555L31.1556 16.5363C31.0981 16.4648 31.0208 16.412 30.9333 16.3845C30.8458 16.357 30.7522 16.3561 30.6642 16.3818C30.5779 16.4087 30.5013 16.4603 30.4439 16.5301C30.3866 16.6 30.3509 16.6851 30.3413 16.775L29.5691 16.9996C29.5152 16.9277 29.4404 16.8743 29.3549 16.8467C29.2694 16.819 29.1775 16.8185 29.0917 16.8452C29.0045 16.8704 28.9269 16.9214 28.8693 16.9916C28.8116 17.0618 28.7766 17.1478 28.7688 17.2383L26.3961 17.9262C26.3961 17.3787 26.3961 16.9575 26.3961 16.7328C27.0351 16.4724 27.5639 15.998 27.8918 15.3909C28.2197 14.7837 28.3265 14.0814 28.1938 13.4042C28.0611 12.727 27.6972 12.1169 27.1644 11.6783C26.6316 11.2398 25.963 11 25.2729 11C24.5828 11 23.9142 11.2398 23.3813 11.6783C22.8485 12.1169 22.4847 12.727 22.352 13.4042C22.2193 14.0814 22.3261 14.7837 22.654 15.3909C22.9819 15.998 23.5106 16.4724 24.1497 16.7328V16.7328C24.1497 16.9575 24.1497 17.3787 24.1497 17.9262L21.777 17.2383C21.7692 17.1478 21.7342 17.0618 21.6765 16.9916C21.6189 16.9214 21.5413 16.8704 21.4541 16.8452C21.3683 16.8185 21.2764 16.819 21.1909 16.8467C21.1054 16.8743 21.0306 16.9277 20.9767 16.9996L20.2045 16.775C20.1949 16.6851 20.1592 16.6 20.1018 16.5301C20.0445 16.4603 19.9679 16.4087 19.8816 16.3818C19.7936 16.3561 19.6999 16.357 19.6125 16.3845C19.525 16.412 19.4476 16.4648 19.3902 16.5363L18.7444 16.3397C18.649 16.3006 18.5423 16.2992 18.4459 16.3357C18.3495 16.3721 18.2705 16.4438 18.2249 16.5363L17.8879 17.6595C17.873 17.7111 17.8683 17.7652 17.8744 17.8186C17.8804 17.872 17.8969 17.9237 17.923 17.9707C17.9492 18.0177 17.9843 18.059 18.0265 18.0924C18.0686 18.1257 18.117 18.1503 18.1687 18.1649L18.8146 18.3615C18.8224 18.4519 18.8574 18.5379 18.915 18.6081C18.9727 18.6783 19.0502 18.7294 19.1375 18.7546C19.2255 18.7803 19.3191 18.7794 19.4066 18.7519C19.4941 18.7244 19.5714 18.6716 19.6289 18.6001L20.387 18.8248C20.401 18.9152 20.44 18.9999 20.4995 19.0693C20.5591 19.1388 20.6368 19.1902 20.724 19.2179C20.8098 19.2445 20.9017 19.244 20.9872 19.2164C21.0726 19.1887 21.1474 19.1353 21.2013 19.0634L24.1216 19.9199C24.1216 23.9072 23.9812 30.0145 23.7987 30.7446C23.7423 31.0534 23.6237 31.3475 23.4502 31.6091C23.2766 31.8707 23.0517 32.0943 22.7891 32.2663C22.5265 32.4383 22.2317 32.5552 21.9225 32.6098C21.6134 32.6643 21.2964 32.6555 20.9907 32.5838C19.4093 31.946 17.9757 30.9903 16.7788 29.7758C15.5293 28.7228 16.2453 28.7509 16.2453 28.7509C17.347 29.0252 18.5125 28.8536 19.4885 28.2736C18.0294 27.8084 16.6547 27.1116 15.4169 26.2097C14.2781 25.0462 13.3304 23.71 12.609 22.2505C11.9345 24.1384 11.8175 26.1806 12.272 28.1332C13.0442 31.3202 14.1674 32.0924 14.1674 32.0924C14.1919 31.3301 14.2669 30.5703 14.392 29.818C15.5584 31.4334 16.9482 32.8752 18.5197 34.1001C19.9926 35.2593 21.5667 36.2837 23.2231 37.1608C23.9787 37.6776 24.6591 38.2965 25.2448 39V39C25.8349 38.2955 26.52 37.6765 27.2806 37.1608C28.937 36.2837 30.5111 35.2593 31.9839 34.1001C33.5555 32.8752 34.9452 31.4334 36.1116 29.818C36.2367 30.5703 36.3118 31.3301 36.3363 32.0924C36.3363 32.0924 37.4595 31.3202 38.2317 28.1332C38.6817 26.1792 38.5598 24.137 37.8807 22.2505V22.2505ZM23.5039 13.8968C23.5039 13.6682 23.5489 13.4418 23.6364 13.2306C23.7239 13.0193 23.8521 12.8274 24.0138 12.6658C24.1754 12.5041 24.3674 12.3759 24.5786 12.2884C24.7898 12.2009 25.0162 12.1558 25.2448 12.1558C25.4734 12.1558 25.6998 12.2009 25.911 12.2884C26.1223 12.3759 26.3142 12.5041 26.4758 12.6658C26.6375 12.8274 26.7657 13.0193 26.8532 13.2306C26.9407 13.4418 26.9857 13.6682 26.9857 13.8968C26.9973 14.1639 26.9462 14.43 26.8365 14.6738C26.7268 14.9176 26.5615 15.1323 26.354 15.3008C26.354 14.4865 26.1574 13.8968 25.2729 13.8968C24.3884 13.8968 24.2199 14.4163 24.1918 15.3008C23.974 15.1381 23.7979 14.926 23.6783 14.6818C23.5587 14.4377 23.4989 14.1686 23.5039 13.8968V13.8968Z" fill="#E136EA"/>
</svg>
