<svg fill="none" height="23" viewBox="0 0 22 23" width="22" xmlns="http://www.w3.org/2000/svg"><path d="m21.6917 9.24733-10.1123-8.684963c-.1575-.135043-.3596-.209462-.5687-.209462-.2092 0-.4113.074419-.5688.209462l-10.135001 8.684963c-.136862.11614-.2342682.27058-.2791585.44259-.0448904.17202-.0351186.35338.0280051.51978.0631234.1664.1765814.3099.3251604.4113.148579.1013.325176.1556.506112.1557h2.047482v11.1632c.00287.1086.04814.212.12645.2889.07832.0769.1837.1213.29442.1241h5.07319c.11072-.0028.2161-.0472.29442-.1241.07831-.0769.12358-.1803.12645-.2889v-7.591c0-.1095.04435-.2146.12327-.2921.07893-.0774.18598-.1209.2976-.1209h3.4125c.1116 0 .2186.0435.2976.1209.0789.0775.1232.1826.1232.2921v7.591c.0029.1086.0482.212.1265.2889s.1837.1213.2944.1241h5.0732c.1107-.0028.2161-.0472.2944-.1241s.1236-.1803.1265-.2889v-11.1632h2.0475c.1848.0095.3681-.0379.5241-.1356.156-.0978.277-.241.3459-.4095.069-.1686.0825-.35415.0387-.53064-.0439-.17649-.1429-.33511-.2831-.45363z" fill="#fff"/></svg>