<svg width="40" height="40" viewBox="0 0 40 40" fill="none" xmlns="http://www.w3.org/2000/svg">
<circle cx="20" cy="20" r="20" fill="black"/>
<path d="M30.6917 16.2473L20.5794 7.56237C20.4219 7.42732 20.2198 7.35291 20.0107 7.35291C19.8015 7.35291 19.5994 7.42732 19.4419 7.56237L9.3069 16.2473C9.17004 16.3635 9.07263 16.5179 9.02774 16.6899C8.98285 16.8619 8.99262 17.0433 9.05575 17.2097C9.11887 17.3761 9.23233 17.5196 9.38091 17.621C9.52949 17.7223 9.70608 17.7766 9.88702 17.7767H11.9345V28.9399C11.9374 29.0485 11.9826 29.1519 12.061 29.2288C12.1393 29.3057 12.2447 29.3501 12.3554 29.3529H17.4286C17.5393 29.3501 17.6447 29.3057 17.723 29.2288C17.8013 29.1519 17.8466 29.0485 17.8494 28.9399V21.3489C17.8494 21.2394 17.8938 21.1343 17.9727 21.0568C18.0516 20.9794 18.1587 20.9359 18.2703 20.9359H21.6828C21.7944 20.9359 21.9014 20.9794 21.9804 21.0568C22.0593 21.1343 22.1036 21.2394 22.1036 21.3489V28.9399C22.1065 29.0485 22.1518 29.1519 22.2301 29.2288C22.3084 29.3057 22.4138 29.3501 22.5245 29.3529H27.5977C27.7084 29.3501 27.8138 29.3057 27.8921 29.2288C27.9704 29.1519 28.0157 29.0485 28.0186 28.9399V17.7767H30.0661C30.2509 17.7862 30.4342 17.7388 30.5902 17.6411C30.7462 17.5433 30.8672 17.4001 30.9361 17.2316C31.0051 17.063 31.0186 16.8775 30.9748 16.701C30.9309 16.5245 30.8319 16.3659 30.6917 16.2473V16.2473Z" fill="white"/>
</svg>
