<?xml version="1.0" encoding="UTF-8"?>
<svg width="13" height="13" xmlns="http://www.w3.org/2000/svg">
    <path d="m1 1.5v8l4-4z" fill="#069"/>
    <g transform="matrix(1.1745 0 0 .85142 -8.2539e-6 .75)" stroke-width=".5">
        <path d="m6.6298 5.5804c0 1.0871-0.18169 2.064-0.54506 2.9308-0.36338 0.86678-0.7335 1.6884-1.5295 2.1022-0.72593 0.37738-1.2736 0.29804-1.2736 0.29804 0.14278-0.15169 0.57097-0.60884 0.85648-0.97001 0.28922-0.35755 0.54321-0.75844 0.76198-1.2027 0.22989-0.46229 0.41158-0.94985 0.54506-1.4627 0.13719-0.51285 0.20579-1.0781 0.20579-1.6956 0-0.5923-0.068596-1.1557-0.20579-1.6902-0.13719-0.53452-0.31888-1.0239-0.54506-1.4681-0.2336-0.45867-0.48759-0.85956-0.76198-1.2027-0.27068-0.34671-0.70631-0.81113-0.85648-0.97004 0 0 0.76027-0.065073 1.2736 0.29804 0.51334 0.36311 1.1661 1.2354 1.5295 2.1022 0.36338 0.86678 0.54506 1.8437 0.54506 2.9308z" fill="#069" stroke="#069" stroke-linecap="round" stroke-linejoin="round" stroke-width=".48331"/>
    </g>
    <g transform="matrix(.79493 0 0 .74678 5.0854 2.7769)">
        <g transform="matrix(.64023 0 0 .64023 -2.9151 4.8495)">
            <path d="m3.7377 5.7429c-1.0502-1.3009 0.61953-3.6894 1.5962-3.9727 0.71808-0.20833 0.94135-0.19459 1.9293 1.1641 1.0142 1.3947 1.5242 2.0186 2.7462 3.993 1.4897-4.3832 2.7109-6.4267 4.3287-9.2306 2.4389-4.2271 5.2995-6.225 5.7569-3.6745 0.16996 0.94778-2.013 3.6787-3.3236 6.3656-1.6139 3.3087-2.9411 5.7632-4.189 11.933-0.10507 0.51951-0.60938 1.3408-2.0597 1.48-0.55805 0.053566-1.1965-0.20085-1.6859-0.99505-1.8724-3.0387-3.0079-4.4725-5.099-7.0628z" fill="#090" stroke-width="0"/>
        </g>
    </g>
</svg>
